<?xml version="1.0" encoding="UTF-8"?>
<svg xmlns="http://www.w3.org/2000/svg" width="960" height="520" viewBox="0 0 960 520" role="img">
  <title>Three zones: Tabernacle graded sanctity and cell structure</title>
  <rect width="960" height="520" fill="#FFFFFF"/>
  <rect x="12" y="12" width="936" height="496" rx="8" fill="#EEF4F7" stroke="#172A36" stroke-width="1.5"/>
  <text x="480" y="40" text-anchor="middle" font-family="Arial,Helvetica,sans-serif" font-size="11" font-weight="600" fill="#172A36">Outer court to Holy of Holies, membrane to nucleus</text>
  <line x1="480" y1="52" x2="480" y2="480" stroke="#172A36" stroke-width="1" opacity="0.2"/>

  <text x="240" y="68" text-anchor="middle" font-family="Arial,Helvetica,sans-serif" font-size="8" fill="#8B6914">~1400 BC · Tabernacle zones</text>
  <polygon points="240.0,80.0 337.0,111.5 396.9,194.0 396.9,296.0 337.0,378.5 240.0,410.0 143.0,378.5 83.1,296.0 83.1,194.0 143.0,111.5" fill="#FFF" stroke="#172A36" stroke-width="1" opacity="0.5"/>
  <text x="240" y="92" text-anchor="middle" font-size="7" fill="#47545B">Outer Court</text>
  <polygon points="240.0,130.0 307.6,152.0 349.4,209.5 349.4,280.5 307.6,338.0 240.0,360.0 172.4,338.0 130.6,280.5 130.6,209.5 172.4,152.0" fill="rgba(139,105,20,0.06)" stroke="#8B6914" stroke-width="1.2"/>
  <text x="240" y="148" text-anchor="middle" font-size="7" fill="#47545B">Holy Place</text>
  <polygon points="240.0,183.0 276.4,194.8 299.0,225.8 299.0,264.2 276.4,295.2 240.0,307.0 203.6,295.2 181.0,264.2 181.0,225.8 203.6,194.8" fill="rgba(139,105,20,0.14)" stroke="#8B6914" stroke-width="1.5"/>
  <text x="240" y="198" text-anchor="middle" font-size="7" fill="#47545B">Holy of Holies</text>
  <circle cx="240" cy="245" r="22" fill="#8B6914" opacity="0.3" stroke="#172A36" stroke-width="1"/>
  <text x="240" y="249" text-anchor="middle" font-size="7" font-weight="700" fill="#172A36">Ark</text>
  <text x="240" y="430" text-anchor="middle" font-family="Arial,Helvetica,sans-serif" font-size="8" fill="#47545B">decagon court → priestly hall → Ark at centre</text>

  <text x="720" y="68" text-anchor="middle" font-family="Arial,Helvetica,sans-serif" font-size="8" fill="#5B8DB8">Living cell</text>
  <circle cx="720" cy="245" r="150" fill="#FFF" stroke="#5B8DB8" stroke-width="1.5"/>
  <text x="720" y="108" text-anchor="middle" font-size="7" fill="#47545B">cell membrane (Outer Court)</text>
  <circle cx="720" cy="245" r="95" fill="rgba(91,141,184,0.08)" stroke="#5B8DB8" stroke-width="1.2"/>
  <text x="720" y="168" text-anchor="middle" font-size="7" fill="#47545B">cytoplasm · organelles (Holy Place)</text>
  <circle cx="720" cy="245" r="45" fill="rgba(91,141,184,0.18)" stroke="#172A36" stroke-width="1.5"/>
  <text x="720" y="242" text-anchor="middle" font-size="7" font-weight="700" fill="#172A36">nucleus</text>
  <text x="720" y="254" text-anchor="middle" font-size="6" fill="#47545B">DNA · chromatin</text>
  <text x="720" y="430" text-anchor="middle" font-family="Arial,Helvetica,sans-serif" font-size="8" fill="#47545B">membrane → metabolism → genome at centre</text>

</svg>