<?xml version="1.0" encoding="UTF-8"?>
<svg xmlns="http://www.w3.org/2000/svg" width="680" height="260" viewBox="0 0 680 260" role="img">
  <rect width="680" height="260" fill="#EEF4F7"/>
  <text x="340" y="28" text-anchor="middle" font-family="Arial,sans-serif" font-size="11" font-weight="700" letter-spacing="0.14em" fill="#172A36">07 Ę SACRED THREAD &amp; SASH</text>
  <line x1="340" y1="40" x2="340" y2="230" stroke="#172A36" stroke-width="1" opacity="0.2"/>
  <text x="170" y="52" text-anchor="middle" font-size="9" font-weight="700" fill="#172A36">YAJčOPAV*TA</text>
  <text x="510" y="52" text-anchor="middle" font-size="9" font-weight="700" fill="#172A36">TZIZIT Ę AVNET</text>
  <!-- Torso + 3 threads -->
  <ellipse cx="170" cy="130" rx="28" ry="32" fill="#FFF" stroke="#172A36" stroke-width="1.2"/>
  <path d="M148 115 Q170 95 192 115 L188 200 Q170 210 152 200 Z" fill="none" stroke="#172A36" stroke-width="1.5"/>
  <line x1="158" y1="108" x2="182" y2="195" stroke="#172A36" stroke-width="2"/>
  <line x1="168" y1="105" x2="175" y2="198" stroke="#172A36" stroke-width="1.5" opacity="0.6"/>
  <line x1="178" y1="108" x2="168" y2="198" stroke="#172A36" stroke-width="1.5" opacity="0.6"/>
  <text x="170" y="232" text-anchor="middle" font-size="8" fill="#47545B">Upanayana Ę triple cotton</text>
  <!-- Garment corners + sash -->
  <rect x="468" y="100" width="84" height="100" fill="#FFF" stroke="#172A36" stroke-width="1.2"/>
  <line x1="472" y1="195" x2="482" y2="175" stroke="#172A36" stroke-width="1.5"/>
  <line x1="548" y1="195" x2="538" y2="175" stroke="#172A36" stroke-width="1.5"/>
  <line x1="472" y1="104" x2="482" y2="124" stroke="#172A36" stroke-width="1.5"/>
  <line x1="548" y1="104" x2="538" y2="124" stroke="#172A36" stroke-width="1.5"/>
  <rect x="468" y="155" width="84" height="12" fill="#172A36" opacity="0.85"/>
  <text x="510" y="232" text-anchor="middle" font-size="8" fill="#47545B">Blue thread Ę priestly avnet</text>
</svg>
