<?xml version="1.0" encoding="UTF-8"?>
<svg xmlns="http://www.w3.org/2000/svg" width="680" height="260" viewBox="0 0 680 260" role="img" aria-label="Incense offering Dhupa and Ketoret">
  <rect width="680" height="260" fill="#EEF4F7"/>
  <text x="340" y="28" text-anchor="middle" font-family="Arial,Helvetica,sans-serif" font-size="11" font-weight="700" letter-spacing="0.14em" fill="#172A36">03 - INCENSE OFFERING</text>
  <line x1="340" y1="40" x2="340" y2="230" stroke="#172A36" stroke-width="1" opacity="0.2"/>
  <text x="170" y="52" text-anchor="middle" font-family="Arial,Helvetica,sans-serif" font-size="9" font-weight="700" fill="#172A36">DHUPA</text>
  <text x="510" y="52" text-anchor="middle" font-family="Arial,Helvetica,sans-serif" font-size="9" font-weight="700" fill="#172A36">KETORET</text>
  <path d="M150 200 Q155 160 160 130 Q165 100 170 75" fill="none" stroke="#172A36" stroke-width="1.2" opacity="0.5"/>
  <path d="M175 200 Q180 155 185 125 Q190 95 195 70" fill="none" stroke="#172A36" stroke-width="1.2" opacity="0.5"/>
  <path d="M490 200 Q495 160 500 130 Q505 100 510 75" fill="none" stroke="#172A36" stroke-width="1.2" opacity="0.5"/>
  <path d="M515 200 Q520 155 525 125" fill="none" stroke="#172A36" stroke-width="1.2" opacity="0.5"/>
  <rect x="148" y="198" width="44" height="10" fill="#172A36"/>
  <rect x="488" y="198" width="44" height="10" fill="#172A36"/>
  <text x="170" y="232" text-anchor="middle" font-family="Arial,Helvetica,sans-serif" font-size="8" fill="#47545B">Guggulu, camphor, sandal</text>
  <text x="510" y="232" text-anchor="middle" font-family="Arial,Helvetica,sans-serif" font-size="8" fill="#47545B">Golden altar before veil, 2x daily</text>
</svg>
