<?xml version="1.0" encoding="UTF-8"?>
<svg xmlns="http://www.w3.org/2000/svg" width="680" height="260" viewBox="0 0 680 260" role="img">
  <title>Holika Dahan and burnt offerings</title>
  <rect width="680" height="260" fill="#EEF4F7"/>
  <text x="340" y="28" text-anchor="middle" font-family="Arial,Helvetica,sans-serif" font-size="11" font-weight="700" letter-spacing="0.12em" fill="#172A36">10 - SACRED FIRE · BURNT OFFERING</text>
  <line x1="340" y1="40" x2="340" y2="230" stroke="#172A36" stroke-width="1" opacity="0.18"/><text x="170" y="62" text-anchor="middle" font-family="'Noto Sans Devanagari', 'Arial Unicode MS', sans-serif" font-size="13" fill="#172A36">होलिका दहन</text><text x="510" y="62" text-anchor="middle" font-family="'Noto Sans Devanagari', 'Arial Unicode MS', sans-serif" font-size="13" fill="#172A36">עֹלָה</text>
  <text x="170" y="78" text-anchor="middle" font-family="Arial,Helvetica,sans-serif" font-size="8" font-weight="700" letter-spacing="0.1em" fill="#47545B">HOLIKA DAHAN / HAVAN</text>
  <text x="510" y="78" text-anchor="middle" font-family="Arial,Helvetica,sans-serif" font-size="8" font-weight="700" letter-spacing="0.1em" fill="#47545B">OLAH · MIZBEACH</text>
  <!-- Bonfire -->
  <ellipse cx="170" cy="200" rx="55" ry="12" fill="rgba(23,42,54,0.12)"/>
  <path d="M140 200 Q150 150 165 120 Q170 95 175 120 Q190 155 200 200 Z" fill="#172A36" opacity="0.75"/>
  <path d="M155 200 Q165 160 170 135 Q175 110 180 140 Q188 170 195 200 Z" fill="#172A36" opacity="0.5"/>
  <rect x="158" y="175" width="24" height="28" rx="2" fill="none" stroke="#172A36" stroke-width="1.2"/>
  <text x="170" y="228" text-anchor="middle" font-family="'Noto Sans Devanagari', 'Arial Unicode MS', sans-serif" font-size="9" fill="#47545B">अग्नि · पाप दहन</text>
  <text x="170" y="242" text-anchor="middle" font-size="7" fill="#47545B">Havan kunda · spring Holi rite</text>
  <!-- Bronze altar -->
  <rect x="468" y="175" width="84" height="28" fill="#172A36"/>
  <rect x="448" y="168" width="124" height="8" fill="#172A36" opacity="0.5"/>
  <path d="M500 168 Q505 130 510 95 Q515 125 520 168" fill="none" stroke="#172A36" stroke-width="1.5" opacity="0.45"/>
  <path d="M488 168 Q492 125 496 100" fill="none" stroke="#172A36" stroke-width="1.2" opacity="0.35"/>
  <path d="M524 168 Q528 125 532 100" fill="none" stroke="#172A36" stroke-width="1.2" opacity="0.35"/>
  <text x="510" y="228" text-anchor="middle" font-size="8" fill="#47545B">Burnt offering ascends</text>
  <text x="510" y="242" text-anchor="middle" font-family="'Noto Sans Devanagari', 'Arial Unicode MS', sans-serif" font-size="9" fill="#172A36">यज्ञ वेदी · לְעוֹלָם</text>

</svg>
