<svg xmlns="http://www.w3.org/2000/svg" width="1254" height="836" viewBox="0 0 1254 836">
<g>
<path d="M 653.37 592.44 C637.75,595.17 624.22,593.85 607.45,587.93 C582.93,579.28 562.11,565.69 524.00,533.49 C517.67,528.15 508.99,521.30 504.70,518.27 C500.42,515.25 497.08,512.26 497.28,511.64 C498.12,509.06 503.57,507.50 511.50,507.58 C524.30,507.70 534.16,511.76 557.83,526.63 C565.16,531.23 571.53,535.00 571.99,535.00 C572.45,535.00 572.33,533.70 571.73,532.10 C570.85,529.75 570.96,528.71 572.33,526.62 C574.72,522.97 578.24,522.42 586.42,524.43 C600.83,527.95 614.56,527.55 641.00,522.84 C657.27,519.94 677.63,519.28 686.01,521.40 C695.11,523.69 709.38,530.96 707.82,532.51 C707.53,532.80 703.95,531.45 699.87,529.51 C686.31,523.08 671.23,521.49 652.00,524.49 C646.78,525.31 638.22,526.65 633.00,527.48 C616.93,530.03 601.70,530.40 592.00,528.48 C587.33,527.56 582.03,526.57 580.24,526.29 C573.63,525.25 571.95,530.60 577.06,536.42 C580.60,540.44 591.59,545.09 603.80,547.72 C612.48,549.59 635.51,550.06 648.38,548.62 C654.76,547.91 656.17,547.99 655.81,549.07 C654.97,551.60 649.38,552.29 629.00,552.39 C610.64,552.47 607.53,552.24 599.21,550.15 C588.44,547.44 575.36,541.07 556.50,529.35 C536.08,516.66 525.75,511.98 514.75,510.44 C509.78,509.74 500.98,510.62 501.03,511.81 C501.05,512.19 503.86,514.39 507.28,516.69 C510.70,519.00 520.67,526.80 529.43,534.03 C566.65,564.76 586.41,577.21 611.05,585.46 C621.25,588.87 623.87,589.34 635.07,589.77 C658.24,590.66 672.41,586.23 720.22,563.14 C742.13,552.56 754.11,547.91 768.24,544.49 C779.37,541.79 781.41,541.53 780.57,542.89 C780.27,543.38 776.30,544.78 771.76,546.00 C756.69,550.07 746.74,554.08 721.00,566.49 C683.43,584.59 671.00,589.36 653.37,592.44 ZM 755.00 328.12 C752.05,330.29 743.21,331.25 737.50,330.03 C726.88,327.77 717.17,323.17 698.31,311.47 C690.80,306.81 684.34,303.00 683.95,303.00 C683.57,303.00 683.30,304.84 683.36,307.10 C683.45,310.27 682.94,311.63 681.12,313.10 C678.23,315.44 675.54,315.48 667.64,313.31 C657.77,310.59 638.68,311.14 613.20,314.87 C601.48,316.59 588.62,318.00 584.61,318.00 C572.34,318.00 558.27,313.48 549.06,306.58 C544.38,303.08 545.87,303.34 554.36,307.51 C558.29,309.43 565.33,311.97 570.00,313.14 C580.01,315.65 591.95,315.36 611.00,312.13 C638.94,307.40 655.48,307.05 669.84,310.87 C677.07,312.79 677.21,312.79 679.09,310.91 C681.49,308.51 681.50,306.33 679.12,302.42 C676.74,298.52 668.54,294.57 656.00,291.28 C647.84,289.14 644.11,288.77 629.50,288.65 C620.15,288.57 609.62,288.73 606.10,289.00 C601.59,289.35 599.57,289.14 599.28,288.29 C598.52,286.08 604.25,285.50 626.00,285.56 C646.03,285.62 648.17,285.80 657.34,288.27 C668.90,291.39 680.30,296.99 703.24,310.78 C720.26,321.02 726.65,323.98 737.67,326.72 C743.78,328.23 752.34,327.87 753.47,326.05 C753.75,325.59 750.27,322.52 745.74,319.22 C741.21,315.92 731.88,308.61 725.00,302.97 C698.50,281.22 684.51,271.53 666.00,262.09 C644.31,251.03 632.04,247.76 612.36,247.78 C589.42,247.80 576.47,251.97 531.00,273.99 C504.81,286.68 483.38,295.93 476.33,297.59 C471.06,298.83 475.23,296.35 486.50,291.53 C492.55,288.94 510.10,280.62 525.50,273.03 C570.48,250.86 586.32,245.38 608.50,244.32 C628.50,243.36 642.91,246.81 665.50,257.97 C683.92,267.07 699.76,278.00 724.92,298.98 C731.20,304.22 741.06,312.10 746.84,316.50 C752.61,320.90 757.37,324.90 757.42,325.39 C757.46,325.88 756.38,327.11 755.00,328.12 ZM 609.21 483.57 C616.60,489.02 615.19,490.21 607.34,485.14 C589.45,473.58 581.98,451.90 588.92,431.72 C591.82,423.29 594.59,418.44 605.01,403.50 C619.62,382.54 626.10,368.12 627.82,352.73 C628.21,349.23 629.04,346.48 629.77,346.24 C631.53,345.66 637.36,358.57 640.08,369.07 C642.88,379.84 642.92,393.65 640.18,403.01 C637.73,411.40 634.51,417.74 625.21,432.48 C613.08,451.69 611.45,460.73 617.49,475.25 C617.89,476.21 617.79,477.00 617.28,477.00 C616.76,477.00 615.25,474.67 613.92,471.83 C612.01,467.76 611.51,465.05 611.53,459.08 C611.57,449.57 613.91,443.65 623.66,428.50 C632.86,414.18 634.73,410.39 637.06,401.26 C640.37,388.32 639.31,374.58 633.87,359.75 C632.71,356.59 631.42,354.00 631.02,354.00 C630.61,354.00 630.00,356.37 629.66,359.27 C628.16,372.04 621.95,385.16 608.03,405.00 C593.13,426.23 589.42,435.63 590.24,450.02 C591.03,463.86 597.16,474.70 609.21,483.57 ZM 884.49 382.75 C868.17,386.43 864.12,386.61 860.00,383.83 C852.97,379.07 850.59,367.89 855.43,362.31 C857.29,360.16 858.14,359.77 859.05,360.67 C859.96,361.56 859.86,362.36 858.62,364.14 C854.99,369.31 858.03,380.22 863.48,381.58 C864.87,381.93 867.58,381.93 869.50,381.57 L 872.98 380.91 L 869.49 377.42 C866.38,374.31 866.00,373.36 866.00,368.60 C866.00,364.65 866.56,362.56 868.17,360.51 C874.25,352.78 887.13,353.55 891.45,361.91 C893.39,365.65 893.41,369.07 891.55,373.53 C890.12,376.96 890.13,377.00 892.62,377.00 C894.49,377.00 895.06,377.46 894.81,378.75 C894.56,380.08 892.10,381.04 884.49,382.75 ZM 611.77 687.00 C607.98,689.31 605.67,689.44 601.50,687.59 C596.48,685.36 593.76,681.60 593.24,676.17 C592.33,666.66 597.45,661.00 606.95,661.00 C611.10,661.00 612.57,661.48 614.59,663.50 C615.97,664.88 617.24,666.00 617.43,666.00 C617.61,666.00 618.08,662.62 618.47,658.50 C619.09,651.89 619.41,651.00 621.18,651.00 C622.99,651.00 623.13,651.47 622.63,655.75 C622.32,658.36 621.81,664.33 621.51,669.00 C620.31,687.07 619.96,689.00 617.90,689.00 C616.67,689.00 616.00,688.30 616.00,687.00 C616.00,684.53 615.82,684.53 611.77,687.00 ZM 396.29 401.00 C396.00,402.10 395.48,402.95 395.13,402.88 C389.93,401.88 367.31,399.15 363.75,399.08 C359.69,399.01 359.00,398.71 359.00,397.00 C359.00,395.73 359.67,395.00 360.83,395.00 C363.75,395.00 364.08,393.92 361.97,391.23 C359.69,388.34 359.38,381.74 361.35,378.19 C366.22,369.42 381.87,370.11 386.35,379.29 C388.65,384.00 387.96,388.71 384.34,393.01 C382.91,394.70 381.96,396.29 382.20,396.54 C382.45,396.79 384.87,397.25 387.58,397.56 C396.25,398.56 396.86,398.80 396.29,401.00 ZM 532.72 656.77 C528.91,665.66 527.03,668.96 525.75,668.97 C523.73,669.00 523.54,667.73 525.12,664.78 C526.10,662.94 526.01,662.79 524.37,663.51 C520.07,665.38 515.09,665.22 511.64,663.09 C500.38,656.13 504.58,638.52 517.80,637.25 C524.01,636.65 528.33,638.79 530.86,643.71 C532.61,647.13 532.79,647.23 533.44,645.19 C534.18,642.84 534.80,642.58 536.72,643.81 C537.62,644.38 536.56,647.80 532.72,656.77 ZM 745.82 186.28 C742.97,192.45 740.38,197.82 740.06,198.21 C738.90,199.63 736.79,197.25 737.42,195.24 C738.01,193.40 737.71,193.28 733.70,193.73 C725.21,194.69 719.00,189.14 719.00,180.62 C719.01,174.32 721.46,169.96 726.28,167.67 C733.45,164.27 741.75,166.82 744.48,173.27 C745.61,175.92 745.97,176.19 746.53,174.75 C747.26,172.89 751.00,172.29 751.00,174.03 C751.00,174.59 748.67,180.11 745.82,186.28 ZM 468.00 233.08 C460.12,238.65 448.41,233.36 446.54,223.38 C445.62,218.46 449.20,211.45 454.00,208.81 C463.30,203.68 475.00,210.65 475.00,221.30 C475.00,225.07 471.86,230.36 468.00,233.08 ZM 681.96 682.75 C681.98,683.44 681.13,684.00 680.07,684.00 C678.47,684.00 677.85,682.66 676.45,676.25 C675.53,671.99 673.70,664.03 672.40,658.56 C671.10,653.10 670.17,648.49 670.34,648.32 C671.58,647.09 687.98,643.96 690.64,644.46 C695.47,645.37 699.00,650.09 699.00,655.65 C699.00,661.85 695.58,665.15 686.26,667.92 L 679.19 670.03 L 680.56 675.76 C681.31,678.92 681.94,682.06 681.96,682.75 ZM 392.70 347.04 C384.48,352.05 373.36,346.42 372.27,336.68 C371.27,327.80 377.22,321.01 386.00,321.01 C394.74,321.01 400.83,327.78 399.69,336.25 C399.05,341.07 396.79,344.55 392.70,347.04 ZM 629.84 483.36 C631.54,487.22 631.64,488.00 630.39,488.00 C627.84,488.00 625.04,480.16 625.04,473.00 C625.04,464.45 626.94,460.48 637.34,447.22 C649.75,431.41 652.83,424.41 653.92,409.58 C654.29,404.50 654.96,401.51 655.77,401.24 C657.53,400.66 665.33,417.48 667.96,427.50 C671.83,442.24 670.65,457.93 664.82,469.36 C662.29,474.32 654.67,482.53 649.66,485.71 C645.05,488.63 643.23,487.76 647.50,484.67 C663.82,472.91 670.37,452.50 665.11,429.77 C663.93,424.64 661.65,417.75 660.06,414.47 C657.42,409.04 657.15,408.78 657.08,411.54 C656.81,422.06 650.15,436.67 639.66,449.72 C630.61,460.99 628.73,464.75 628.20,472.61 C627.88,477.27 628.27,479.83 629.84,483.36 ZM 873.83 464.01 C873.46,464.00 871.82,465.12 870.18,466.50 C867.49,468.76 867.15,468.83 866.54,467.25 C866.08,466.05 866.70,464.85 868.53,463.39 C871.12,461.33 871.15,461.19 869.60,458.19 C867.50,454.13 867.55,447.09 869.70,443.97 C872.45,439.99 874.22,439.07 879.16,439.03 C883.16,439.00 884.19,439.44 886.41,442.08 C887.84,443.77 889.00,445.58 889.00,446.11 C889.00,446.70 889.75,446.67 890.93,446.04 C892.00,445.47 894.67,445.00 896.86,445.00 C902.14,445.00 905.00,448.41 905.00,454.71 C905.00,458.29 904.43,459.72 902.08,462.08 C898.85,465.31 896.52,465.81 895.63,463.47 C895.24,462.46 895.86,461.62 897.46,461.02 C900.16,459.99 902.00,457.18 902.00,454.07 C902.00,451.50 898.62,448.00 896.15,448.00 C895.13,448.00 890.37,451.01 885.58,454.69 L 876.86 461.39 L 880.79 463.44 C882.97,464.58 884.52,466.06 884.27,466.75 C883.63,468.57 880.93,468.27 877.50,466.00 C875.85,464.91 874.20,464.01 873.83,464.01 ZM 390.00 458.24 C390.00,460.73 388.63,460.50 369.50,454.67 C348.59,448.31 348.05,447.60 359.20,440.92 C363.21,438.51 370.69,433.94 375.81,430.77 C380.93,427.60 385.32,425.00 385.56,425.00 C385.80,425.00 386.00,425.92 386.00,427.04 C386.00,428.38 384.47,430.00 381.53,431.79 C379.64,432.94 378.48,433.58 377.87,434.57 C376.93,436.07 377.28,438.37 378.19,444.50 C378.23,444.82 378.28,445.15 378.33,445.49 L 379.52 453.49 L 384.76 454.98 C388.53,456.06 390.00,456.97 390.00,458.24 ZM 692.56 175.57 C691.49,176.36 688.52,177.00 685.96,177.00 C671.33,177.00 665.90,158.52 678.30,150.96 C684.58,147.13 693.47,149.26 696.33,155.28 C698.05,158.91 698.59,165.52 697.23,166.36 C696.81,166.62 692.87,165.98 688.48,164.92 C684.09,163.87 679.23,163.01 677.68,163.01 C675.23,163.00 674.95,163.29 675.54,165.25 C677.49,171.81 683.31,175.13 689.22,173.07 C693.26,171.66 695.54,173.36 692.56,175.57 ZM 483.88 631.45 C477.76,635.60 472.48,638.99 472.13,638.98 C471.78,638.98 470.88,638.58 470.13,638.10 C469.01,637.39 469.32,635.47 471.83,627.40 C473.51,621.99 474.74,617.40 474.54,617.21 C474.35,617.02 470.31,619.44 465.56,622.61 C458.03,627.61 456.74,628.17 455.48,626.91 C454.22,625.65 454.57,623.76 458.19,612.23 C460.47,604.95 462.60,599.01 462.92,599.02 C463.24,599.02 464.06,599.39 464.75,599.82 C465.71,600.44 465.35,602.56 463.16,609.06 C462.84,610.00 462.54,610.89 462.26,611.72 C460.10,618.09 459.10,621.05 459.85,621.60 C460.51,622.07 462.48,620.74 466.16,618.24 C466.71,617.87 467.30,617.47 467.93,617.05 C476.26,611.45 480.00,609.82 480.00,611.80 C480.00,612.24 478.66,616.85 477.02,622.05 C475.38,627.25 474.03,632.06 474.02,632.74 C474.01,633.43 477.79,631.29 482.43,627.99 C490.16,622.50 495.00,620.56 495.00,622.95 C495.00,623.47 490.00,627.30 483.88,631.45 ZM 514.23 660.00 C518.16,662.39 520.15,662.49 524.03,660.48 C533.90,655.38 530.72,641.00 519.72,641.00 C509.07,641.00 505.17,654.47 514.23,660.00 ZM 727.83 189.29 C732.13,191.96 735.76,191.44 739.60,187.60 C742.38,184.82 743.00,183.44 743.00,180.02 C743.00,170.89 732.37,166.47 725.92,172.92 C721.23,177.62 722.18,185.79 727.83,189.29 ZM 602.11 683.60 C609.15,687.51 617.00,682.39 617.00,673.89 C617.00,672.23 616.54,670.00 615.97,668.94 C614.76,666.68 609.95,664.00 607.10,664.00 C596.95,664.00 593.22,678.68 602.11,683.60 ZM 456.30 230.08 C460.46,232.67 464.65,231.94 468.25,227.99 C471.38,224.55 471.81,220.46 469.49,215.98 C466.57,210.34 459.32,209.18 454.15,213.53 C448.47,218.31 449.44,225.81 456.30,230.08 ZM 380.78 343.44 C389.75,348.31 399.77,339.63 395.52,330.68 C391.10,321.37 376.00,324.06 376.00,334.15 C376.00,339.08 377.26,341.53 380.78,343.44 ZM 367.77 394.03 C371.74,397.15 376.59,396.61 380.60,392.60 C385.13,388.07 385.30,383.15 381.08,378.92 C375.38,373.23 365.34,375.80 363.43,383.43 C362.60,386.74 364.55,391.50 367.77,394.03 ZM 874.26 377.89 C876.04,379.03 878.08,379.97 878.80,379.98 C881.00,380.01 885.80,377.13 887.44,374.78 C889.55,371.76 889.45,364.77 887.24,362.05 C884.88,359.13 878.32,358.27 874.30,360.34 C867.69,363.76 867.67,373.67 874.26,377.89 ZM 823.00 255.13 C818.88,258.91 815.25,262.00 814.95,262.00 C814.65,262.00 813.90,261.50 813.29,260.89 C812.48,260.08 814.17,257.87 819.59,252.63 C827.97,244.55 828.61,242.45 824.08,237.92 C821.89,235.73 820.21,235.00 817.41,235.00 C814.26,235.00 812.62,235.94 806.94,240.98 C801.22,246.06 800.03,246.74 798.99,245.49 C797.73,243.97 798.71,242.94 818.81,224.62 C824.59,219.36 827.95,217.94 828.58,220.50 C828.71,221.05 826.43,223.52 823.49,226.00 C820.56,228.48 818.13,230.79 818.08,231.14 C818.04,231.49 819.50,232.06 821.32,232.40 C823.15,232.74 825.97,234.40 827.57,236.08 C829.94,238.54 830.50,240.01 830.50,243.70 C830.50,248.11 830.24,248.51 823.00,255.13 ZM 866.96 567.63 C865.68,571.50 864.74,572.34 863.28,570.88 C862.55,570.15 862.57,568.94 863.34,566.91 C864.23,564.54 864.13,563.45 862.80,561.26 C861.26,558.72 860.22,558.39 847.32,556.33 C839.72,555.11 833.16,554.09 832.75,554.06 C831.78,553.98 831.82,552.83 832.84,551.23 C833.48,550.21 835.83,550.37 844.42,552.03 C850.35,553.17 855.77,553.97 856.47,553.80 C857.25,553.62 854.85,549.58 850.40,543.57 C844.60,535.75 843.29,533.36 844.19,532.27 C845.67,530.48 845.70,530.51 856.95,546.26 C867.63,561.22 868.48,563.03 866.96,567.63 ZM 676.58 658.44 L 678.37 666.02 L 681.94 665.38 C687.06,664.47 692.09,662.25 693.62,660.24 C695.62,657.60 695.30,652.30 693.00,650.00 C691.87,648.87 689.67,648.00 687.94,648.00 C685.21,648.00 676.04,649.85 675.15,650.58 C674.96,650.74 675.60,654.28 676.58,658.44 ZM 872.95 326.03 C871.85,326.62 867.37,328.63 862.99,330.51 C855.39,333.76 854.98,333.83 854.01,332.03 C853.12,330.36 853.66,329.90 858.55,328.07 C870.80,323.48 873.00,321.70 873.00,316.34 C873.00,313.19 867.93,308.00 864.83,307.99 C863.55,307.99 858.98,309.43 854.69,311.20 C848.11,313.91 846.73,314.19 845.98,312.97 C845.49,312.17 845.40,311.22 845.79,310.86 C847.52,309.26 868.50,300.98 869.68,301.43 C871.72,302.21 871.24,303.97 868.75,304.91 C866.63,305.70 866.72,305.84 870.29,307.34 C877.76,310.48 879.48,322.53 872.95,326.03 ZM 739.77 665.00 C732.33,669.53 727.14,666.18 721.68,653.31 C719.77,648.81 718.46,644.87 718.77,644.56 C720.49,642.85 722.31,644.86 725.84,652.41 C731.10,663.63 734.32,665.36 740.19,660.13 C744.31,656.44 744.28,652.93 740.06,643.58 C737.63,638.22 737.22,636.48 738.22,635.85 C738.92,635.40 739.76,635.02 740.09,635.02 C740.41,635.01 743.04,640.46 745.93,647.13 C750.11,656.75 750.92,659.44 749.85,660.12 C747.86,661.37 747.00,661.19 747.00,659.50 C747.00,657.18 745.44,657.73 744.18,660.50 C743.55,661.88 741.57,663.90 739.77,665.00 ZM 443.62 584.39 C443.29,585.70 439.47,589.97 435.13,593.88 C428.10,600.22 427.10,600.82 425.90,599.38 C424.75,597.99 425.04,597.37 428.03,594.76 C439.53,584.76 440.00,584.24 440.00,581.56 C440.00,578.00 435.04,573.00 431.51,573.00 C428.04,573.00 425.60,574.34 419.18,579.78 C414.44,583.78 413.69,584.11 412.35,582.78 C411.02,581.45 411.94,580.38 420.64,573.14 C426.02,568.66 430.98,565.00 431.65,565.00 C433.71,565.00 434.39,567.20 432.64,568.18 C430.04,569.64 430.73,571.00 434.08,571.00 C439.70,571.00 445.08,578.55 443.62,584.39 ZM 640.14 157.42 C639.69,166.39 639.12,170.47 638.25,170.75 C636.05,171.48 635.70,168.14 636.26,151.90 L 636.81 136.00 L 630.41 136.00 C624.53,136.00 624.00,135.82 624.00,133.86 C624.00,131.90 624.37,131.78 628.64,132.36 C631.19,132.71 637.97,133.00 643.71,133.00 C653.11,133.00 654.11,133.17 653.81,134.75 C653.55,136.15 652.25,136.56 647.24,136.80 L 641.00 137.10 L 640.89 140.80 C640.82,142.83 640.49,150.31 640.14,157.42 ZM 415.03 300.20 C412.95,302.29 410.76,304.00 410.18,304.00 C407.52,304.00 408.24,301.70 412.02,298.10 C415.49,294.80 416.09,293.65 415.82,290.85 C415.33,285.73 412.72,286.03 406.50,291.91 C400.48,297.60 398.04,298.13 394.45,294.55 C390.11,290.20 391.82,282.40 398.09,277.94 C400.65,276.11 401.36,275.96 402.09,277.11 C403.40,279.18 403.23,279.57 400.49,280.82 C399.11,281.45 397.23,283.54 396.32,285.46 C394.74,288.77 394.75,289.07 396.48,290.98 C397.49,292.09 398.69,293.00 399.14,293.00 C399.60,293.00 402.49,290.72 405.57,287.94 C411.92,282.18 415.00,281.75 418.28,286.16 C421.14,290.01 419.92,295.32 415.03,300.20 ZM 783.26 223.40 C782.17,224.49 777.54,223.98 774.35,222.40 C761.95,216.28 763.04,199.77 776.10,195.85 C779.28,194.90 780.71,195.00 784.45,196.43 C789.17,198.23 792.39,201.74 793.54,206.31 C794.10,208.55 793.89,209.00 792.23,209.00 C790.83,209.00 790.07,208.12 789.65,206.00 C788.98,202.67 784.04,199.01 780.20,199.00 C770.85,198.99 766.26,210.70 773.11,217.10 C775.23,219.08 777.25,220.00 779.50,220.00 C782.55,220.00 784.71,221.95 783.26,223.40 ZM 568.96 177.52 C562.61,180.80 553.65,178.09 550.46,171.93 C547.04,165.31 549.73,155.74 555.91,152.55 C559.70,150.59 568.34,150.50 569.93,152.41 C571.67,154.51 569.57,155.39 563.53,155.11 C559.28,154.91 557.98,155.29 555.71,157.39 C553.57,159.38 553.00,160.81 553.00,164.23 C553.00,169.44 555.10,172.73 559.63,174.62 C562.53,175.83 563.47,175.83 566.37,174.62 C568.22,173.84 570.43,172.22 571.28,171.01 C572.42,169.38 573.25,169.04 574.45,169.71 C575.92,170.54 575.87,170.89 573.95,173.33 C572.78,174.82 570.54,176.71 568.96,177.52 ZM 837.61 590.48 C833.74,594.35 831.03,593.71 823.00,587.00 C819.05,583.70 815.46,581.00 815.03,581.00 C814.60,581.00 813.67,581.69 812.96,582.54 C811.11,584.78 809.51,582.78 810.97,580.05 C811.97,578.19 811.77,577.61 809.56,575.87 C806.63,573.56 806.32,572.20 808.55,571.34 C809.43,571.01 811.09,571.67 812.37,572.88 L 814.64 575.01 L 816.99 572.51 C819.31,570.04 822.00,569.16 822.00,570.87 C822.00,571.34 821.10,572.87 820.00,574.27 C818.90,575.67 818.00,577.06 818.00,577.36 C818.00,578.55 831.82,589.00 833.38,589.00 C834.30,589.00 835.56,587.86 836.19,586.47 C836.83,585.08 837.83,584.11 838.42,584.31 C840.50,585.00 840.11,587.98 837.61,590.48 ZM 441.41 260.92 C437.48,265.59 436.07,265.22 425.13,256.63 C419.07,251.87 418.68,251.71 417.37,253.51 C416.33,254.93 415.71,255.11 414.84,254.24 C413.97,253.37 414.01,252.70 415.00,251.50 C416.13,250.14 415.85,249.52 413.04,247.18 C410.07,244.69 409.92,244.31 411.41,243.07 C412.84,241.89 413.40,242.03 415.61,244.10 L 418.17 246.50 L 420.54 243.75 C422.67,241.27 426.00,239.99 426.00,241.66 C426.00,242.02 424.91,243.74 423.57,245.49 L 421.15 248.68 L 428.50 254.34 C432.55,257.45 436.31,260.00 436.86,260.00 C437.41,260.00 438.74,258.88 439.82,257.50 C440.90,256.12 442.29,255.00 442.89,255.00 C444.79,255.00 444.11,257.71 441.41,260.92 ZM 872.43 455.48 L 873.97 459.16 L 876.73 457.15 C878.25,456.05 881.08,453.80 883.00,452.15 C886.41,449.23 886.46,449.08 884.97,446.33 C883.77,444.11 882.61,443.43 879.62,443.18 C872.86,442.62 869.47,448.41 872.43,455.48 ZM 560.71 671.51 C558.59,678.92 556.95,681.35 555.57,679.11 C555.23,678.57 556.37,672.47 558.10,665.56 C560.81,654.76 561.53,653.00 563.23,653.00 C564.86,653.00 565.10,653.46 564.58,655.54 C563.94,658.07 563.96,658.07 566.92,656.54 C569.94,654.98 574.17,654.50 575.26,655.60 C576.81,657.14 574.52,659.00 571.07,659.00 C565.92,659.00 563.44,661.99 560.71,671.51 ZM 365.33 449.64 C365.85,449.80 366.34,449.95 366.81,450.09 C371.68,451.56 373.90,452.22 374.77,451.42 C375.51,450.75 375.30,449.05 374.92,445.93 C374.87,445.57 374.83,445.19 374.78,444.79 C374.30,440.83 373.78,437.44 373.61,437.27 C373.44,437.10 369.65,439.09 365.19,441.69 C360.74,444.29 357.33,446.66 357.63,446.96 C357.92,447.25 361.39,448.46 365.33,449.64 ZM 778.35 643.42 C777.52,643.74 776.66,644.00 776.44,644.00 C775.39,644.00 762.00,622.82 762.52,621.97 C763.31,620.69 766.00,620.72 766.00,622.00 C766.00,622.55 766.45,623.00 767.00,623.00 C767.55,623.00 768.00,622.16 768.00,621.13 C768.00,619.05 771.61,614.00 773.10,614.00 C775.15,614.00 775.13,617.07 773.08,618.75 C771.90,619.71 770.69,622.08 770.38,624.00 C769.91,626.99 770.55,628.61 774.84,635.17 C778.82,641.25 779.54,642.96 778.35,643.42 ZM 493.30 189.66 C501.70,203.07 502.91,205.52 501.71,206.72 C500.52,207.91 498.85,205.79 490.14,191.98 C484.55,183.11 480.23,175.44 480.55,174.93 C482.00,172.57 484.17,175.07 493.30,189.66 ZM 410.04 546.77 C393.61,556.49 393.43,556.57 392.66,554.56 C392.54,554.25 392.42,554.00 392.41,553.76 C392.35,552.67 394.35,551.48 407.44,543.69 C408.07,543.32 408.72,542.93 409.40,542.53 C419.24,536.67 422.49,535.17 423.13,536.18 C423.59,536.91 423.98,537.72 423.98,538.00 C423.99,538.28 417.72,542.22 410.04,546.77 ZM 684.15 160.96 L 684.51 161.05 C690.80,162.61 692.92,163.13 693.64,162.36 C694.00,161.96 694.00,161.23 694.00,160.13 L 694.00 160.00 C694.00,155.53 690.91,153.00 685.45,153.00 C681.91,153.00 680.34,153.56 678.35,155.56 C676.94,156.97 676.02,158.35 676.29,158.63 C676.57,158.90 680.11,159.95 684.15,160.96 ZM 526.36 183.18 C529.20,189.36 529.63,191.06 528.57,191.94 C527.62,192.73 526.99,192.68 526.27,191.76 C525.00,190.15 516.00,170.14 516.00,168.92 C516.00,168.41 516.85,168.00 517.89,168.00 C519.14,168.00 520.30,169.28 521.31,171.75 C522.15,173.81 524.42,178.95 526.36,183.18 ZM 843.16 280.45 C837.48,284.05 832.46,287.00 832.02,287.00 C831.58,287.00 830.97,286.35 830.66,285.56 C829.85,283.45 851.93,269.28 853.12,271.15 C853.58,271.89 853.86,272.82 853.73,273.20 C853.61,273.59 848.85,276.85 843.16,280.45 ZM 807.04 613.13 C810.28,616.93 810.74,617.97 809.62,618.90 C808.53,619.81 806.76,618.36 800.92,611.77 C800.33,611.10 799.77,610.47 799.24,609.87 C792.22,601.95 790.84,600.40 791.19,599.53 C791.30,599.25 791.58,599.05 791.91,598.73 C793.20,597.48 795.81,599.96 807.04,613.13 ZM 516.00 159.35 C516.00,161.93 513.53,163.11 511.42,161.54 C509.62,160.21 509.61,160.01 511.17,158.42 C513.01,156.56 516.00,157.13 516.00,159.35 ZM 863.50 266.51 C863.50,267.81 862.72,268.61 861.25,268.82 C858.74,269.18 857.08,266.52 858.76,264.84 C860.39,263.21 863.50,264.31 863.50,266.51 ZM 788.50 592.50 C788.50,593.58 787.78,594.61 786.91,594.78 C784.82,595.18 782.89,592.80 783.93,591.12 C785.13,589.17 788.50,590.19 788.50,592.50 Z" fill="rgb(14,30,41)"/>
<path d="M 634.36 488.33 C631.90,491.39 631.64,491.47 630.16,489.69 C628.48,487.67 627.18,484.90 626.32,481.81 C627.37,485.39 628.92,488.00 630.39,488.00 C631.23,488.00 631.46,487.65 631.00,486.24 C631.35,486.73 631.71,487.00 632.05,487.00 C632.54,487.00 633.97,485.20 635.22,483.01 C637.50,479.02 639.03,477.89 638.96,480.25 C638.92,481.78 637.21,484.79 634.36,488.33 ZM 629.26 481.97 C628.28,479.35 627.98,477.08 628.14,473.65 C628.12,476.34 628.58,479.44 629.26,481.97 ZM 625.41 467.77 C625.72,465.76 626.24,463.87 626.98,462.22 C627.30,461.54 627.91,460.48 628.74,459.18 C626.85,462.37 625.87,464.96 625.41,467.77 Z" fill="rgb(61,77,89)"/>
<path d="M 0.00 418.00 L 0.00 0.00 L 627.00 0.00 L 1254.00 0.00 L 1254.00 418.00 L 1254.00 836.00 L 627.00 836.00 L 0.00 836.00 L 0.00 418.00 ZM 611.77 687.00 C615.82,684.53 616.00,684.53 616.00,687.00 C616.00,688.30 616.67,689.00 617.90,689.00 C619.96,689.00 620.31,687.07 621.51,669.00 C621.81,664.33 622.32,658.36 622.63,655.75 C623.13,651.47 622.99,651.00 621.18,651.00 C619.41,651.00 619.09,651.89 618.47,658.50 C618.08,662.62 617.61,666.00 617.43,666.00 C617.24,666.00 615.97,664.88 614.59,663.50 C612.57,661.48 611.10,661.00 606.95,661.00 C597.45,661.00 592.33,666.66 593.24,676.17 C593.76,681.60 596.48,685.36 601.50,687.59 C605.67,689.44 607.98,689.31 611.77,687.00 ZM 681.96 682.75 C681.94,682.06 681.31,678.92 680.56,675.76 L 679.19 670.03 L 686.26 667.92 C695.58,665.15 699.00,661.85 699.00,655.65 C699.00,650.09 695.47,645.37 690.64,644.46 C687.98,643.96 671.58,647.09 670.34,648.32 C670.17,648.49 671.10,653.10 672.40,658.56 C673.70,664.03 675.53,671.99 676.45,676.25 C677.85,682.66 678.47,684.00 680.07,684.00 C681.13,684.00 681.98,683.44 681.96,682.75 ZM 560.71 671.51 C563.44,661.99 565.92,659.00 571.07,659.00 C574.52,659.00 576.81,657.14 575.26,655.60 C574.17,654.50 569.94,654.98 566.92,656.54 C563.96,658.07 563.94,658.07 564.58,655.54 C565.10,653.46 564.86,653.00 563.23,653.00 C561.53,653.00 560.81,654.76 558.10,665.56 C556.37,672.47 555.23,678.57 555.57,679.11 C556.95,681.35 558.59,678.92 560.71,671.51 ZM 532.72 656.77 C536.56,647.80 537.62,644.38 536.72,643.81 C534.80,642.58 534.18,642.84 533.44,645.19 C532.79,647.23 532.61,647.13 530.86,643.71 C528.33,638.79 524.01,636.65 517.80,637.25 C504.58,638.52 500.38,656.13 511.64,663.09 C515.09,665.22 520.07,665.38 524.37,663.51 C526.01,662.79 526.10,662.94 525.12,664.78 C523.54,667.73 523.73,669.00 525.75,668.97 C527.03,668.96 528.91,665.66 532.72,656.77 ZM 739.77 665.00 C741.57,663.90 743.55,661.88 744.18,660.50 C745.44,657.73 747.00,657.18 747.00,659.50 C747.00,661.19 747.86,661.37 749.85,660.12 C750.92,659.44 750.11,656.75 745.93,647.13 C743.04,640.46 740.41,635.01 740.09,635.02 C739.76,635.02 738.92,635.40 738.22,635.85 C737.22,636.48 737.63,638.22 740.06,643.58 C744.28,652.93 744.31,656.44 740.19,660.13 C734.32,665.36 731.10,663.63 725.84,652.41 C722.31,644.86 720.49,642.85 718.77,644.56 C718.46,644.87 719.77,648.81 721.68,653.31 C727.14,666.18 732.33,669.53 739.77,665.00 ZM 778.35 643.42 C779.54,642.96 778.82,641.25 774.84,635.17 C770.55,628.61 769.91,626.99 770.38,624.00 C770.69,622.08 771.90,619.71 773.08,618.75 C775.13,617.07 775.15,614.00 773.10,614.00 C771.61,614.00 768.00,619.05 768.00,621.13 C768.00,622.16 767.55,623.00 767.00,623.00 C766.45,623.00 766.00,622.55 766.00,622.00 C766.00,620.72 763.31,620.69 762.52,621.97 C762.00,622.82 775.39,644.00 776.44,644.00 C776.66,644.00 777.52,643.74 778.35,643.42 ZM 483.88 631.45 C490.00,627.30 495.00,623.47 495.00,622.95 C495.00,620.56 490.16,622.50 482.43,627.99 C477.79,631.29 474.01,633.43 474.02,632.74 C474.03,632.06 475.38,627.25 477.02,622.05 C478.66,616.85 480.00,612.24 480.00,611.80 C480.00,609.82 476.26,611.45 467.93,617.05 C457.62,623.98 457.95,624.53 463.16,609.06 C465.35,602.56 465.71,600.44 464.75,599.82 C464.06,599.39 463.24,599.02 462.92,599.02 C462.60,599.01 460.47,604.95 458.19,612.23 C454.57,623.76 454.22,625.65 455.48,626.91 C456.74,628.17 458.03,627.61 465.56,622.61 C470.31,619.44 474.35,617.02 474.54,617.21 C474.74,617.40 473.51,621.99 471.83,627.40 C469.32,635.47 469.01,637.39 470.13,638.10 C470.88,638.58 471.78,638.98 472.13,638.98 C472.48,638.99 477.76,635.60 483.88,631.45 ZM 807.04 613.13 C795.81,599.96 793.20,597.48 791.91,598.73 C790.46,600.13 789.92,599.35 800.92,611.77 C806.76,618.36 808.53,619.81 809.62,618.90 C810.74,617.97 810.28,616.93 807.04,613.13 ZM 443.62 584.39 C445.08,578.55 439.70,571.00 434.08,571.00 C430.73,571.00 430.04,569.64 432.64,568.18 C434.39,567.20 433.71,565.00 431.65,565.00 C430.98,565.00 426.02,568.66 420.64,573.14 C411.94,580.38 411.02,581.45 412.35,582.78 C413.69,584.11 414.44,583.78 419.18,579.78 C425.60,574.34 428.04,573.00 431.51,573.00 C435.04,573.00 440.00,578.00 440.00,581.56 C440.00,584.24 439.53,584.76 428.03,594.76 C425.04,597.37 424.75,597.99 425.90,599.38 C427.10,600.82 428.10,600.22 435.13,593.88 C439.47,589.97 443.29,585.70 443.62,584.39 ZM 788.50 592.50 C788.50,590.19 785.13,589.17 783.93,591.12 C782.89,592.80 784.82,595.18 786.91,594.78 C787.78,594.61 788.50,593.58 788.50,592.50 ZM 653.37 592.44 C671.00,589.36 683.43,584.59 721.00,566.49 C746.74,554.08 756.69,550.07 771.76,546.00 C776.30,544.78 780.27,543.38 780.57,542.89 C781.41,541.53 779.37,541.79 768.24,544.49 C754.11,547.91 742.13,552.56 720.22,563.14 C672.41,586.23 658.24,590.66 635.07,589.77 C623.87,589.34 621.25,588.87 611.05,585.46 C586.41,577.21 566.65,564.76 529.43,534.03 C520.67,526.80 510.70,519.00 507.28,516.69 C503.86,514.39 501.05,512.19 501.03,511.81 C500.98,510.62 509.78,509.74 514.75,510.44 C525.75,511.98 536.08,516.66 556.50,529.35 C575.36,541.07 588.44,547.44 599.21,550.15 C607.53,552.24 610.64,552.47 629.00,552.39 C649.38,552.29 654.97,551.60 655.81,549.07 C656.17,547.99 654.76,547.91 648.38,548.62 C635.51,550.06 612.48,549.59 603.80,547.72 C591.59,545.09 580.60,540.44 577.06,536.42 C571.95,530.60 573.63,525.25 580.24,526.29 C582.03,526.57 587.33,527.56 592.00,528.48 C601.70,530.40 616.93,530.03 633.00,527.48 C638.22,526.65 646.78,525.31 652.00,524.49 C671.23,521.49 686.31,523.08 699.87,529.51 C703.95,531.45 707.53,532.80 707.82,532.51 C709.38,530.96 695.11,523.69 686.01,521.40 C677.63,519.28 657.27,519.94 641.00,522.84 C614.56,527.55 600.83,527.95 586.42,524.43 C578.24,522.42 574.72,522.97 572.33,526.62 C570.96,528.71 570.85,529.75 571.73,532.10 C572.33,533.70 572.45,535.00 571.99,535.00 C571.53,535.00 565.16,531.23 557.83,526.63 C534.16,511.76 524.30,507.70 511.50,507.58 C503.57,507.50 498.12,509.06 497.28,511.64 C497.08,512.26 500.42,515.25 504.70,518.27 C508.99,521.30 517.67,528.15 524.00,533.49 C562.11,565.69 582.93,579.28 607.45,587.93 C624.22,593.85 637.75,595.17 653.37,592.44 ZM 837.61 590.48 C840.11,587.98 840.50,585.00 838.42,584.31 C837.83,584.11 836.83,585.08 836.19,586.47 C835.56,587.86 834.30,589.00 833.38,589.00 C831.82,589.00 818.00,578.55 818.00,577.36 C818.00,577.06 818.90,575.67 820.00,574.27 C821.10,572.87 822.00,571.34 822.00,570.87 C822.00,569.16 819.31,570.04 816.99,572.51 L 814.64 575.01 L 812.37 572.88 C811.09,571.67 809.43,571.01 808.55,571.34 C806.32,572.20 806.63,573.56 809.56,575.87 C811.77,577.61 811.97,578.19 810.97,580.05 C809.51,582.78 811.11,584.78 812.96,582.54 C813.67,581.69 814.60,581.00 815.03,581.00 C815.46,581.00 819.05,583.70 823.00,587.00 C831.03,593.71 833.74,594.35 837.61,590.48 ZM 866.96 567.63 C868.48,563.03 867.63,561.22 856.95,546.26 C845.70,530.51 845.67,530.48 844.19,532.27 C843.29,533.36 844.60,535.75 850.40,543.57 C854.85,549.58 857.25,553.62 856.47,553.80 C855.77,553.97 850.35,553.17 844.42,552.03 C835.83,550.37 833.48,550.21 832.84,551.23 C831.82,552.83 831.78,553.98 832.75,554.06 C833.16,554.09 839.72,555.11 847.32,556.33 C860.22,558.39 861.26,558.72 862.80,561.26 C864.13,563.45 864.23,564.54 863.34,566.91 C862.57,568.94 862.55,570.15 863.28,570.88 C864.74,572.34 865.68,571.50 866.96,567.63 ZM 410.04 546.77 C417.72,542.22 423.99,538.28 423.98,538.00 C423.98,537.72 423.59,536.91 423.13,536.18 C422.49,535.17 419.24,536.67 409.40,542.53 C391.31,553.29 391.99,552.81 392.66,554.56 C393.43,556.57 393.61,556.49 410.04,546.77 ZM 634.36 488.33 C637.21,484.79 638.92,481.78 638.96,480.25 C639.03,477.89 637.50,479.02 635.22,483.01 C633.97,485.20 632.54,487.00 632.05,487.00 C630.09,487.00 627.75,478.08 628.19,472.28 C628.76,464.71 630.73,460.84 639.66,449.72 C650.15,436.67 656.81,422.06 657.08,411.54 C657.15,408.78 657.42,409.04 660.06,414.47 C661.65,417.75 663.93,424.64 665.11,429.77 C670.37,452.50 663.82,472.91 647.50,484.67 C643.23,487.76 645.05,488.63 649.66,485.71 C654.67,482.53 662.29,474.32 664.82,469.36 C670.65,457.93 671.83,442.24 667.96,427.50 C665.33,417.48 657.53,400.66 655.77,401.24 C654.96,401.51 654.29,404.50 653.92,409.58 C652.83,424.41 649.75,431.41 637.34,447.22 C632.71,453.12 628.05,459.87 626.98,462.22 C623.43,470.06 624.97,483.44 630.16,489.69 C631.64,491.47 631.90,491.39 634.36,488.33 ZM 609.21 483.57 C597.16,474.70 591.03,463.86 590.24,450.02 C589.42,435.63 593.13,426.23 608.03,405.00 C621.95,385.16 628.16,372.04 629.66,359.27 C630.00,356.37 630.61,354.00 631.02,354.00 C631.42,354.00 632.71,356.59 633.87,359.75 C639.31,374.58 640.37,388.32 637.06,401.26 C634.73,410.39 632.86,414.18 623.66,428.50 C613.91,443.65 611.57,449.57 611.53,459.08 C611.51,465.05 612.01,467.76 613.92,471.83 C615.25,474.67 616.76,477.00 617.28,477.00 C617.79,477.00 617.89,476.21 617.49,475.25 C611.45,460.73 613.08,451.69 625.21,432.48 C634.51,417.74 637.73,411.40 640.18,403.01 C642.92,393.65 642.88,379.84 640.08,369.07 C637.36,358.57 631.53,345.66 629.77,346.24 C629.04,346.48 628.21,349.23 627.82,352.73 C626.10,368.12 619.62,382.54 605.01,403.50 C594.59,418.44 591.82,423.29 588.92,431.72 C581.98,451.90 589.45,473.58 607.34,485.14 C615.19,490.21 616.60,489.02 609.21,483.57 ZM 873.83 464.01 C874.20,464.01 875.85,464.91 877.50,466.00 C880.93,468.27 883.63,468.57 884.27,466.75 C884.52,466.06 882.97,464.58 880.79,463.44 L 876.86 461.39 L 885.58 454.69 C890.37,451.01 895.13,448.00 896.15,448.00 C898.62,448.00 902.00,451.50 902.00,454.07 C902.00,457.18 900.16,459.99 897.46,461.02 C895.86,461.62 895.24,462.46 895.63,463.47 C896.52,465.81 898.85,465.31 902.08,462.08 C904.43,459.72 905.00,458.29 905.00,454.71 C905.00,448.41 902.14,445.00 896.86,445.00 C894.67,445.00 892.00,445.47 890.93,446.04 C889.75,446.67 889.00,446.70 889.00,446.11 C889.00,445.58 887.84,443.77 886.41,442.08 C884.19,439.44 883.16,439.00 879.16,439.03 C874.22,439.07 872.45,439.99 869.70,443.97 C867.55,447.09 867.50,454.13 869.60,458.19 C871.15,461.19 871.12,461.33 868.53,463.39 C866.70,464.85 866.08,466.05 866.54,467.25 C867.15,468.83 867.49,468.76 870.18,466.50 C871.82,465.12 873.46,464.00 873.83,464.01 ZM 390.00 458.24 C390.00,456.97 388.53,456.06 384.76,454.98 L 379.52 453.49 L 378.33 445.49 C376.68,434.35 376.58,434.79 381.53,431.79 C384.47,430.00 386.00,428.38 386.00,427.04 C386.00,425.92 385.80,425.00 385.56,425.00 C385.32,425.00 380.93,427.60 375.81,430.77 C370.69,433.94 363.21,438.51 359.20,440.92 C348.05,447.60 348.59,448.31 369.50,454.67 C388.63,460.50 390.00,460.73 390.00,458.24 ZM 396.29 401.00 C396.86,398.80 396.25,398.56 387.58,397.56 C384.87,397.25 382.45,396.79 382.20,396.54 C381.96,396.29 382.91,394.70 384.34,393.01 C387.96,388.71 388.65,384.00 386.35,379.29 C381.87,370.11 366.22,369.42 361.35,378.19 C359.38,381.74 359.69,388.34 361.97,391.23 C364.08,393.92 363.75,395.00 360.83,395.00 C359.67,395.00 359.00,395.73 359.00,397.00 C359.00,398.71 359.69,399.01 363.75,399.08 C367.31,399.15 389.93,401.88 395.13,402.88 C395.48,402.95 396.00,402.10 396.29,401.00 ZM 884.49 382.75 C892.10,381.04 894.56,380.08 894.81,378.75 C895.06,377.46 894.49,377.00 892.62,377.00 C890.13,377.00 890.12,376.96 891.55,373.53 C893.41,369.07 893.39,365.65 891.45,361.91 C887.13,353.55 874.25,352.78 868.17,360.51 C866.56,362.56 866.00,364.65 866.00,368.60 C866.00,373.36 866.38,374.31 869.49,377.42 L 872.98 380.91 L 869.50 381.57 C867.58,381.93 864.87,381.93 863.48,381.58 C858.03,380.22 854.99,369.31 858.62,364.14 C859.86,362.36 859.96,361.56 859.05,360.67 C858.14,359.77 857.29,360.16 855.43,362.31 C850.59,367.89 852.97,379.07 860.00,383.83 C864.12,386.61 868.17,386.43 884.49,382.75 ZM 392.70 347.04 C396.79,344.55 399.05,341.07 399.69,336.25 C400.83,327.78 394.74,321.01 386.00,321.01 C377.22,321.01 371.27,327.80 372.27,336.68 C373.36,346.42 384.48,352.05 392.70,347.04 ZM 872.95 326.03 C879.48,322.53 877.76,310.48 870.29,307.34 C866.72,305.84 866.63,305.70 868.75,304.91 C871.24,303.97 871.72,302.21 869.68,301.43 C868.50,300.98 847.52,309.26 845.79,310.86 C845.40,311.22 845.49,312.17 845.98,312.97 C846.73,314.19 848.11,313.91 854.69,311.20 C858.98,309.43 863.55,307.99 864.83,307.99 C867.93,308.00 873.00,313.19 873.00,316.34 C873.00,321.70 870.80,323.48 858.55,328.07 C853.66,329.90 853.12,330.36 854.01,332.03 C854.98,333.83 855.39,333.76 862.99,330.51 C867.37,328.63 871.85,326.62 872.95,326.03 ZM 755.00 328.12 C756.38,327.11 757.46,325.88 757.42,325.39 C757.37,324.90 752.61,320.90 746.84,316.50 C741.06,312.10 731.20,304.22 724.92,298.98 C699.76,278.00 683.92,267.07 665.50,257.97 C642.91,246.81 628.50,243.36 608.50,244.32 C586.32,245.38 570.48,250.86 525.50,273.03 C510.10,280.62 492.55,288.94 486.50,291.53 C475.23,296.35 471.06,298.83 476.33,297.59 C483.38,295.93 504.81,286.68 531.00,273.99 C576.47,251.97 589.42,247.80 612.36,247.78 C632.04,247.76 644.31,251.03 666.00,262.09 C684.51,271.53 698.50,281.22 725.00,302.97 C731.88,308.61 741.21,315.92 745.74,319.22 C750.27,322.52 753.75,325.59 753.47,326.05 C752.34,327.87 743.78,328.23 737.67,326.72 C726.65,323.98 720.26,321.02 703.24,310.78 C680.30,296.99 668.90,291.39 657.34,288.27 C648.17,285.80 646.03,285.62 626.00,285.56 C604.25,285.50 598.52,286.08 599.28,288.29 C599.57,289.14 601.59,289.35 606.10,289.00 C609.62,288.73 620.15,288.57 629.50,288.65 C644.11,288.77 647.84,289.14 656.00,291.28 C668.54,294.57 676.74,298.52 679.12,302.42 C681.50,306.33 681.49,308.51 679.09,310.91 C677.21,312.79 677.07,312.79 669.84,310.87 C655.48,307.05 638.94,307.40 611.00,312.13 C591.95,315.36 580.01,315.65 570.00,313.14 C565.33,311.97 558.29,309.43 554.36,307.51 C545.87,303.34 544.38,303.08 549.06,306.58 C558.27,313.48 572.34,318.00 584.61,318.00 C588.62,318.00 601.48,316.59 613.20,314.87 C638.68,311.14 657.77,310.59 667.64,313.31 C675.54,315.48 678.23,315.44 681.12,313.10 C682.94,311.63 683.45,310.27 683.36,307.10 C683.30,304.84 683.57,303.00 683.95,303.00 C684.34,303.00 690.80,306.81 698.31,311.47 C717.17,323.17 726.88,327.77 737.50,330.03 C743.21,331.25 752.05,330.29 755.00,328.12 ZM 415.03 300.20 C419.92,295.32 421.14,290.01 418.28,286.16 C415.00,281.75 411.92,282.18 405.57,287.94 C402.49,290.72 399.60,293.00 399.14,293.00 C398.69,293.00 397.49,292.09 396.48,290.98 C394.75,289.07 394.74,288.77 396.32,285.46 C397.23,283.54 399.11,281.45 400.49,280.82 C403.23,279.57 403.40,279.18 402.09,277.11 C401.36,275.96 400.65,276.11 398.09,277.94 C391.82,282.40 390.11,290.20 394.45,294.55 C398.04,298.13 400.48,297.60 406.50,291.91 C412.72,286.03 415.33,285.73 415.82,290.85 C416.09,293.65 415.49,294.80 412.02,298.10 C408.24,301.70 407.52,304.00 410.18,304.00 C410.76,304.00 412.95,302.29 415.03,300.20 ZM 843.16 280.45 C848.85,276.85 853.61,273.59 853.73,273.20 C853.86,272.82 853.58,271.89 853.12,271.15 C851.93,269.28 829.85,283.45 830.66,285.56 C830.97,286.35 831.58,287.00 832.02,287.00 C832.46,287.00 837.48,284.05 843.16,280.45 ZM 863.50 266.51 C863.50,264.31 860.39,263.21 858.76,264.84 C857.08,266.52 858.74,269.18 861.25,268.82 C862.72,268.61 863.50,267.81 863.50,266.51 ZM 441.41 260.92 C444.11,257.71 444.79,255.00 442.89,255.00 C442.29,255.00 440.90,256.12 439.82,257.50 C438.74,258.88 437.41,260.00 436.86,260.00 C436.31,260.00 432.55,257.45 428.50,254.34 L 421.15 248.68 L 423.57 245.49 C424.91,243.74 426.00,242.02 426.00,241.66 C426.00,239.99 422.67,241.27 420.54,243.75 L 418.17 246.50 L 415.61 244.10 C413.40,242.03 412.84,241.89 411.41,243.07 C409.92,244.31 410.07,244.69 413.04,247.18 C415.85,249.52 416.13,250.14 415.00,251.50 C414.01,252.70 413.97,253.37 414.84,254.24 C415.71,255.11 416.33,254.93 417.37,253.51 C418.68,251.71 419.07,251.87 425.13,256.63 C436.07,265.22 437.48,265.59 441.41,260.92 ZM 823.00 255.13 C830.24,248.51 830.50,248.11 830.50,243.70 C830.50,240.01 829.94,238.54 827.57,236.08 C825.97,234.40 823.15,232.74 821.32,232.40 C819.50,232.06 818.04,231.49 818.08,231.14 C818.13,230.79 820.56,228.48 823.49,226.00 C826.43,223.52 828.71,221.05 828.58,220.50 C827.95,217.94 824.59,219.36 818.81,224.62 C798.71,242.94 797.73,243.97 798.99,245.49 C800.03,246.74 801.22,246.06 806.94,240.98 C812.62,235.94 814.26,235.00 817.41,235.00 C820.21,235.00 821.89,235.73 824.08,237.92 C828.61,242.45 827.97,244.55 819.59,252.63 C814.17,257.87 812.48,260.08 813.29,260.89 C813.90,261.50 814.65,262.00 814.95,262.00 C815.25,262.00 818.88,258.91 823.00,255.13 ZM 468.00 233.08 C471.86,230.36 475.00,225.07 475.00,221.30 C475.00,210.65 463.30,203.68 454.00,208.81 C449.20,211.45 445.62,218.46 446.54,223.38 C448.41,233.36 460.12,238.65 468.00,233.08 ZM 783.26 223.40 C784.71,221.95 782.55,220.00 779.50,220.00 C777.25,220.00 775.23,219.08 773.11,217.10 C766.26,210.70 770.85,198.99 780.20,199.00 C784.04,199.01 788.98,202.67 789.65,206.00 C790.07,208.12 790.83,209.00 792.23,209.00 C793.89,209.00 794.10,208.55 793.54,206.31 C792.39,201.74 789.17,198.23 784.45,196.43 C780.71,195.00 779.28,194.90 776.10,195.85 C763.04,199.77 761.95,216.28 774.35,222.40 C777.54,223.98 782.17,224.49 783.26,223.40 ZM 493.30 189.66 C484.17,175.07 482.00,172.57 480.55,174.93 C480.23,175.44 484.55,183.11 490.14,191.98 C498.85,205.79 500.52,207.91 501.71,206.72 C502.91,205.52 501.70,203.07 493.30,189.66 ZM 745.82 186.28 C748.67,180.11 751.00,174.59 751.00,174.03 C751.00,172.29 747.26,172.89 746.53,174.75 C745.97,176.19 745.61,175.92 744.48,173.27 C741.75,166.82 733.45,164.27 726.28,167.67 C721.46,169.96 719.01,174.32 719.00,180.62 C719.00,189.14 725.21,194.69 733.70,193.73 C737.71,193.28 738.01,193.40 737.42,195.24 C736.79,197.25 738.90,199.63 740.06,198.21 C740.38,197.82 742.97,192.45 745.82,186.28 ZM 526.36 183.18 C524.42,178.95 522.15,173.81 521.31,171.75 C520.30,169.28 519.14,168.00 517.89,168.00 C516.85,168.00 516.00,168.41 516.00,168.92 C516.00,170.14 525.00,190.15 526.27,191.76 C526.99,192.68 527.62,192.73 528.57,191.94 C529.63,191.06 529.20,189.36 526.36,183.18 ZM 568.96 177.52 C570.54,176.71 572.78,174.82 573.95,173.33 C575.87,170.89 575.92,170.54 574.45,169.71 C573.25,169.04 572.42,169.38 571.28,171.01 C570.43,172.22 568.22,173.84 566.37,174.62 C563.47,175.83 562.53,175.83 559.63,174.62 C555.10,172.73 553.00,169.44 553.00,164.23 C553.00,160.81 553.57,159.38 555.71,157.39 C557.98,155.29 559.28,154.91 563.53,155.11 C569.57,155.39 571.67,154.51 569.93,152.41 C568.34,150.50 559.70,150.59 555.91,152.55 C549.73,155.74 547.04,165.31 550.46,171.93 C553.65,178.09 562.61,180.80 568.96,177.52 ZM 692.56 175.57 C695.54,173.36 693.26,171.66 689.22,173.07 C683.31,175.13 677.49,171.81 675.54,165.25 C674.95,163.29 675.23,163.00 677.68,163.01 C679.23,163.01 684.09,163.87 688.48,164.92 C692.87,165.98 696.81,166.62 697.23,166.36 C698.59,165.52 698.05,158.91 696.33,155.28 C693.47,149.26 684.58,147.13 678.30,150.96 C665.90,158.52 671.33,177.00 685.96,177.00 C688.52,177.00 691.49,176.36 692.56,175.57 ZM 640.14 157.42 C640.49,150.31 640.82,142.83 640.89,140.80 L 641.00 137.10 L 647.24 136.80 C652.25,136.56 653.55,136.15 653.81,134.75 C654.11,133.17 653.11,133.00 643.71,133.00 C637.97,133.00 631.19,132.71 628.64,132.36 C624.37,131.78 624.00,131.90 624.00,133.86 C624.00,135.82 624.53,136.00 630.41,136.00 L 636.81 136.00 L 636.26 151.90 C635.70,168.14 636.05,171.48 638.25,170.75 C639.12,170.47 639.69,166.39 640.14,157.42 ZM 516.00 159.35 C516.00,157.13 513.01,156.56 511.17,158.42 C509.61,160.01 509.62,160.21 511.42,161.54 C513.53,163.11 516.00,161.93 516.00,159.35 ZM 602.11 683.60 C593.22,678.68 596.95,664.00 607.10,664.00 C609.95,664.00 614.76,666.68 615.97,668.94 C616.54,670.00 617.00,672.23 617.00,673.89 C617.00,682.39 609.15,687.51 602.11,683.60 ZM 676.58 658.44 C675.60,654.28 674.96,650.74 675.15,650.58 C676.04,649.85 685.21,648.00 687.94,648.00 C689.67,648.00 691.87,648.87 693.00,650.00 C695.30,652.30 695.62,657.60 693.62,660.24 C692.09,662.25 687.06,664.47 681.94,665.38 L 678.37 666.02 L 676.58 658.44 ZM 514.23 660.00 C505.17,654.47 509.07,641.00 519.72,641.00 C530.72,641.00 533.90,655.38 524.03,660.48 C520.15,662.49 518.16,662.39 514.23,660.00 ZM 872.43 455.48 C869.47,448.41 872.86,442.62 879.62,443.18 C882.61,443.43 883.77,444.11 884.97,446.33 C886.46,449.08 886.41,449.23 883.00,452.15 C881.08,453.80 878.25,456.05 876.73,457.15 L 873.97 459.16 L 872.43 455.48 ZM 365.33 449.64 C361.39,448.46 357.92,447.25 357.63,446.96 C357.33,446.66 360.74,444.29 365.19,441.69 C369.65,439.09 373.44,437.10 373.61,437.27 C373.78,437.44 374.30,440.83 374.78,444.79 C375.78,453.17 376.27,452.92 365.33,449.64 ZM 367.77 394.03 C364.55,391.50 362.60,386.74 363.43,383.43 C365.34,375.80 375.38,373.23 381.08,378.92 C385.30,383.15 385.13,388.07 380.60,392.60 C376.59,396.61 371.74,397.15 367.77,394.03 ZM 874.26 377.89 C867.67,373.67 867.69,363.76 874.30,360.34 C878.32,358.27 884.88,359.13 887.24,362.05 C889.45,364.77 889.55,371.76 887.44,374.78 C885.80,377.13 881.00,380.01 878.80,379.98 C878.08,379.97 876.04,379.03 874.26,377.89 ZM 380.78 343.44 C377.26,341.53 376.00,339.08 376.00,334.15 C376.00,324.06 391.10,321.37 395.52,330.68 C399.77,339.63 389.75,348.31 380.78,343.44 ZM 456.30 230.08 C449.44,225.81 448.47,218.31 454.15,213.53 C459.32,209.18 466.57,210.34 469.49,215.98 C471.81,220.46 471.38,224.55 468.25,227.99 C464.65,231.94 460.46,232.67 456.30,230.08 ZM 727.83 189.29 C722.18,185.79 721.23,177.62 725.92,172.92 C732.37,166.47 743.00,170.89 743.00,180.02 C743.00,183.44 742.38,184.82 739.60,187.60 C735.76,191.44 732.13,191.96 727.83,189.29 ZM 684.15 160.96 C680.11,159.95 676.57,158.90 676.29,158.63 C676.02,158.35 676.94,156.97 678.35,155.56 C680.34,153.56 681.91,153.00 685.45,153.00 C690.91,153.00 694.00,155.53 694.00,160.00 C694.00,163.44 694.12,163.43 684.15,160.96 Z" fill="rgb(250,249,247)"/>
</g>
</svg>