<svg width="100%" viewBox="0 0 690 910" role="img" xmlns="http://www.w3.org/2000/svg" style="">
  <title style="fill:rgb(0, 0, 0);stroke:none;color:rgb(0, 0, 0);stroke-width:1px;stroke-linecap:butt;stroke-linejoin:miter;opacity:1;font-family:&quot;Anthropic Sans&quot;, -apple-system, &quot;system-ui&quot;, &quot;Segoe UI&quot;, sans-serif;font-size:16px;font-weight:400;text-anchor:start;dominant-baseline:auto">Banyan tree — trunk supports aerial roots reaching to ground</title>
  <desc style="fill:rgb(0, 0, 0);stroke:none;color:rgb(0, 0, 0);stroke-width:1px;stroke-linecap:butt;stroke-linejoin:miter;opacity:1;font-family:&quot;Anthropic Sans&quot;, -apple-system, &quot;system-ui&quot;, &quot;Segoe UI&quot;, sans-serif;font-size:16px;font-weight:400;text-anchor:start;dominant-baseline:auto">A rich atmospheric banyan tree on dark background. The massive trunk supports a wide canopy from which thick aerial roots descend like columns to the earth below.</desc>

  

  <rect width="680" height="900" style="fill:rgb(8, 12, 10);stroke:none;color:rgb(0, 0, 0);stroke-width:1px;stroke-linecap:butt;stroke-linejoin:miter;opacity:1;font-family:&quot;Anthropic Sans&quot;, -apple-system, &quot;system-ui&quot;, &quot;Segoe UI&quot;, sans-serif;font-size:16px;font-weight:400;text-anchor:start;dominant-baseline:auto"/>

  <ellipse cx="340" cy="845" rx="310" ry="28" style="fill:rgb(15, 18, 14);stroke:none;color:rgb(0, 0, 0);stroke-width:1px;stroke-linecap:butt;stroke-linejoin:miter;opacity:1;font-family:&quot;Anthropic Sans&quot;, -apple-system, &quot;system-ui&quot;, &quot;Segoe UI&quot;, sans-serif;font-size:16px;font-weight:400;text-anchor:start;dominant-baseline:auto"/>
  <path d="M30 840 Q170 830 340 835 Q510 830 650 840" fill="none" stroke-width="0.8" style="fill:none;stroke:rgb(42, 53, 37);color:rgb(0, 0, 0);stroke-width:0.8px;stroke-linecap:butt;stroke-linejoin:miter;opacity:1;font-family:&quot;Anthropic Sans&quot;, -apple-system, &quot;system-ui&quot;, &quot;Segoe UI&quot;, sans-serif;font-size:16px;font-weight:400;text-anchor:start;dominant-baseline:auto"/>
  <path d="M30 852 Q200 844 340 848 Q480 844 650 852" fill="none" stroke-width="0.4" style="fill:none;stroke:rgb(42, 53, 37);color:rgb(0, 0, 0);stroke-width:0.4px;stroke-linecap:butt;stroke-linejoin:miter;opacity:1;font-family:&quot;Anthropic Sans&quot;, -apple-system, &quot;system-ui&quot;, &quot;Segoe UI&quot;, sans-serif;font-size:16px;font-weight:400;text-anchor:start;dominant-baseline:auto"/>

  <ellipse cx="100" cy="590" rx="55" ry="35" opacity="0.6" style="fill:rgb(26, 42, 18);stroke:none;color:rgb(0, 0, 0);stroke-width:1px;stroke-linecap:butt;stroke-linejoin:miter;opacity:0.6;font-family:&quot;Anthropic Sans&quot;, -apple-system, &quot;system-ui&quot;, &quot;Segoe UI&quot;, sans-serif;font-size:16px;font-weight:400;text-anchor:start;dominant-baseline:auto"/>
  <ellipse cx="580" cy="600" rx="48" ry="28" opacity="0.5" style="fill:rgb(26, 42, 18);stroke:none;color:rgb(0, 0, 0);stroke-width:1px;stroke-linecap:butt;stroke-linejoin:miter;opacity:0.5;font-family:&quot;Anthropic Sans&quot;, -apple-system, &quot;system-ui&quot;, &quot;Segoe UI&quot;, sans-serif;font-size:16px;font-weight:400;text-anchor:start;dominant-baseline:auto"/>
  <ellipse cx="250" cy="830" rx="70" ry="12" opacity="0.4" style="fill:rgb(26, 42, 18);stroke:none;color:rgb(0, 0, 0);stroke-width:1px;stroke-linecap:butt;stroke-linejoin:miter;opacity:0.4;font-family:&quot;Anthropic Sans&quot;, -apple-system, &quot;system-ui&quot;, &quot;Segoe UI&quot;, sans-serif;font-size:16px;font-weight:400;text-anchor:start;dominant-baseline:auto"/>
  <ellipse cx="450" cy="828" rx="60" ry="10" opacity="0.35" style="fill:rgb(26, 42, 18);stroke:none;color:rgb(0, 0, 0);stroke-width:1px;stroke-linecap:butt;stroke-linejoin:miter;opacity:0.35;font-family:&quot;Anthropic Sans&quot;, -apple-system, &quot;system-ui&quot;, &quot;Segoe UI&quot;, sans-serif;font-size:16px;font-weight:400;text-anchor:start;dominant-baseline:auto"/>

  <path d="M295 820 C288 720 280 600 272 500 C265 420 260 360 258 300 C256 240 262 200 290 175 C310 158 330 152 340 150 C350 152 370 158 390 175 C418 200 424 240 422 300 C420 360 415 420 408 500 C400 600 392 720 385 820 Z" style="fill:rgb(26, 18, 8);stroke:none;color:rgb(0, 0, 0);stroke-width:1px;stroke-linecap:butt;stroke-linejoin:miter;opacity:1;font-family:&quot;Anthropic Sans&quot;, -apple-system, &quot;system-ui&quot;, &quot;Segoe UI&quot;, sans-serif;font-size:16px;font-weight:400;text-anchor:start;dominant-baseline:auto"/>

  <path d="M295 820 C289 720 282 600 276 500 C270 420 266 355 265 295 C264 240 268 200 292 178 C308 162 325 155 340 153 L340 820 Z" style="fill:rgb(46, 31, 13);stroke:none;color:rgb(0, 0, 0);stroke-width:1px;stroke-linecap:butt;stroke-linejoin:miter;opacity:1;font-family:&quot;Anthropic Sans&quot;, -apple-system, &quot;system-ui&quot;, &quot;Segoe UI&quot;, sans-serif;font-size:16px;font-weight:400;text-anchor:start;dominant-baseline:auto"/>
  <path d="M340 153 L340 820 C352 820 358 720 363 600 C368 500 372 420 375 355 C378 295 376 242 370 200 C362 165 352 156 340 153 Z" style="fill:rgb(61, 42, 16);stroke:none;color:rgb(0, 0, 0);stroke-width:1px;stroke-linecap:butt;stroke-linejoin:miter;opacity:1;font-family:&quot;Anthropic Sans&quot;, -apple-system, &quot;system-ui&quot;, &quot;Segoe UI&quot;, sans-serif;font-size:16px;font-weight:400;text-anchor:start;dominant-baseline:auto"/>

  <path d="M305 750 C298 700 292 640 289 580" fill="none" stroke="#5a3d18" stroke-width="1.5" style="fill:none;stroke:rgb(90, 61, 24);color:rgb(0, 0, 0);stroke-width:1.5px;stroke-linecap:butt;stroke-linejoin:miter;opacity:1;font-family:&quot;Anthropic Sans&quot;, -apple-system, &quot;system-ui&quot;, &quot;Segoe UI&quot;, sans-serif;font-size:16px;font-weight:400;text-anchor:start;dominant-baseline:auto"/>
  <path d="M325 780 C320 720 316 660 314 590" fill="none" stroke="#5a3d18" stroke-width="1" style="fill:none;stroke:rgb(90, 61, 24);color:rgb(0, 0, 0);stroke-width:1px;stroke-linecap:butt;stroke-linejoin:miter;opacity:1;font-family:&quot;Anthropic Sans&quot;, -apple-system, &quot;system-ui&quot;, &quot;Segoe UI&quot;, sans-serif;font-size:16px;font-weight:400;text-anchor:start;dominant-baseline:auto"/>
  <path d="M355 780 C360 720 364 660 366 590" fill="none" stroke="#5a3d18" stroke-width="1" style="fill:none;stroke:rgb(90, 61, 24);color:rgb(0, 0, 0);stroke-width:1px;stroke-linecap:butt;stroke-linejoin:miter;opacity:1;font-family:&quot;Anthropic Sans&quot;, -apple-system, &quot;system-ui&quot;, &quot;Segoe UI&quot;, sans-serif;font-size:16px;font-weight:400;text-anchor:start;dominant-baseline:auto"/>
  <path d="M372 750 C379 700 385 640 388 575" fill="none" stroke="#5a3d18" stroke-width="1.5" style="fill:none;stroke:rgb(90, 61, 24);color:rgb(0, 0, 0);stroke-width:1.5px;stroke-linecap:butt;stroke-linejoin:miter;opacity:1;font-family:&quot;Anthropic Sans&quot;, -apple-system, &quot;system-ui&quot;, &quot;Segoe UI&quot;, sans-serif;font-size:16px;font-weight:400;text-anchor:start;dominant-baseline:auto"/>
  <path d="M310 600 C305 550 300 490 298 430" fill="none" stroke="#3d2a10" stroke-width="1" style="fill:none;stroke:rgb(61, 42, 16);color:rgb(0, 0, 0);stroke-width:1px;stroke-linecap:butt;stroke-linejoin:miter;opacity:1;font-family:&quot;Anthropic Sans&quot;, -apple-system, &quot;system-ui&quot;, &quot;Segoe UI&quot;, sans-serif;font-size:16px;font-weight:400;text-anchor:start;dominant-baseline:auto"/>
  <path d="M370 600 C375 550 380 490 382 425" fill="none" stroke="#3d2a10" stroke-width="1" style="fill:none;stroke:rgb(61, 42, 16);color:rgb(0, 0, 0);stroke-width:1px;stroke-linecap:butt;stroke-linejoin:miter;opacity:1;font-family:&quot;Anthropic Sans&quot;, -apple-system, &quot;system-ui&quot;, &quot;Segoe UI&quot;, sans-serif;font-size:16px;font-weight:400;text-anchor:start;dominant-baseline:auto"/>

  <path d="M258 300 C240 295 210 285 185 275 C165 267 148 258 140 252 C132 246 128 240 132 235 C136 230 145 228 158 230 C172 232 192 240 215 250 C238 260 260 272 268 282 Z" style="fill:rgb(46, 31, 13);stroke:none;color:rgb(0, 0, 0);stroke-width:1px;stroke-linecap:butt;stroke-linejoin:miter;opacity:1;font-family:&quot;Anthropic Sans&quot;, -apple-system, &quot;system-ui&quot;, &quot;Segoe UI&quot;, sans-serif;font-size:16px;font-weight:400;text-anchor:start;dominant-baseline:auto"/>
  <path d="M422 300 C440 295 470 285 495 275 C515 267 532 258 540 252 C548 246 552 240 548 235 C544 230 535 228 522 230 C508 232 488 240 465 250 C442 260 420 272 412 282 Z" style="fill:rgb(46, 31, 13);stroke:none;color:rgb(0, 0, 0);stroke-width:1px;stroke-linecap:butt;stroke-linejoin:miter;opacity:1;font-family:&quot;Anthropic Sans&quot;, -apple-system, &quot;system-ui&quot;, &quot;Segoe UI&quot;, sans-serif;font-size:16px;font-weight:400;text-anchor:start;dominant-baseline:auto"/>

  <ellipse cx="340" cy="180" rx="260" ry="150" style="fill:rgb(13, 26, 10);stroke:none;color:rgb(0, 0, 0);stroke-width:1px;stroke-linecap:butt;stroke-linejoin:miter;opacity:1;font-family:&quot;Anthropic Sans&quot;, -apple-system, &quot;system-ui&quot;, &quot;Segoe UI&quot;, sans-serif;font-size:16px;font-weight:400;text-anchor:start;dominant-baseline:auto"/>
  <ellipse cx="200" cy="210" rx="155" ry="110" style="fill:rgb(13, 26, 10);stroke:none;color:rgb(0, 0, 0);stroke-width:1px;stroke-linecap:butt;stroke-linejoin:miter;opacity:1;font-family:&quot;Anthropic Sans&quot;, -apple-system, &quot;system-ui&quot;, &quot;Segoe UI&quot;, sans-serif;font-size:16px;font-weight:400;text-anchor:start;dominant-baseline:auto"/>
  <ellipse cx="480" cy="205" rx="160" ry="115" style="fill:rgb(13, 26, 10);stroke:none;color:rgb(0, 0, 0);stroke-width:1px;stroke-linecap:butt;stroke-linejoin:miter;opacity:1;font-family:&quot;Anthropic Sans&quot;, -apple-system, &quot;system-ui&quot;, &quot;Segoe UI&quot;, sans-serif;font-size:16px;font-weight:400;text-anchor:start;dominant-baseline:auto"/>
  <ellipse cx="340" cy="140" rx="200" ry="120" style="fill:rgb(22, 38, 16);stroke:none;color:rgb(0, 0, 0);stroke-width:1px;stroke-linecap:butt;stroke-linejoin:miter;opacity:1;font-family:&quot;Anthropic Sans&quot;, -apple-system, &quot;system-ui&quot;, &quot;Segoe UI&quot;, sans-serif;font-size:16px;font-weight:400;text-anchor:start;dominant-baseline:auto"/>
  <ellipse cx="160" cy="185" rx="120" ry="90" style="fill:rgb(22, 38, 16);stroke:none;color:rgb(0, 0, 0);stroke-width:1px;stroke-linecap:butt;stroke-linejoin:miter;opacity:1;font-family:&quot;Anthropic Sans&quot;, -apple-system, &quot;system-ui&quot;, &quot;Segoe UI&quot;, sans-serif;font-size:16px;font-weight:400;text-anchor:start;dominant-baseline:auto"/>
  <ellipse cx="520" cy="178" rx="125" ry="92" style="fill:rgb(22, 38, 16);stroke:none;color:rgb(0, 0, 0);stroke-width:1px;stroke-linecap:butt;stroke-linejoin:miter;opacity:1;font-family:&quot;Anthropic Sans&quot;, -apple-system, &quot;system-ui&quot;, &quot;Segoe UI&quot;, sans-serif;font-size:16px;font-weight:400;text-anchor:start;dominant-baseline:auto"/>
  <ellipse cx="340" cy="110" rx="160" ry="95" style="fill:rgb(30, 51, 22);stroke:none;color:rgb(0, 0, 0);stroke-width:1px;stroke-linecap:butt;stroke-linejoin:miter;opacity:1;font-family:&quot;Anthropic Sans&quot;, -apple-system, &quot;system-ui&quot;, &quot;Segoe UI&quot;, sans-serif;font-size:16px;font-weight:400;text-anchor:start;dominant-baseline:auto"/>
  <ellipse cx="130" cy="165" rx="90" ry="70" style="fill:rgb(30, 51, 22);stroke:none;color:rgb(0, 0, 0);stroke-width:1px;stroke-linecap:butt;stroke-linejoin:miter;opacity:1;font-family:&quot;Anthropic Sans&quot;, -apple-system, &quot;system-ui&quot;, &quot;Segoe UI&quot;, sans-serif;font-size:16px;font-weight:400;text-anchor:start;dominant-baseline:auto"/>
  <ellipse cx="550" cy="158" rx="95" ry="72" style="fill:rgb(30, 51, 22);stroke:none;color:rgb(0, 0, 0);stroke-width:1px;stroke-linecap:butt;stroke-linejoin:miter;opacity:1;font-family:&quot;Anthropic Sans&quot;, -apple-system, &quot;system-ui&quot;, &quot;Segoe UI&quot;, sans-serif;font-size:16px;font-weight:400;text-anchor:start;dominant-baseline:auto"/>
  <ellipse cx="260" cy="95" rx="100" ry="68" style="fill:rgb(30, 51, 22);stroke:none;color:rgb(0, 0, 0);stroke-width:1px;stroke-linecap:butt;stroke-linejoin:miter;opacity:1;font-family:&quot;Anthropic Sans&quot;, -apple-system, &quot;system-ui&quot;, &quot;Segoe UI&quot;, sans-serif;font-size:16px;font-weight:400;text-anchor:start;dominant-baseline:auto"/>
  <ellipse cx="420" cy="90" rx="105" ry="70" style="fill:rgb(30, 51, 22);stroke:none;color:rgb(0, 0, 0);stroke-width:1px;stroke-linecap:butt;stroke-linejoin:miter;opacity:1;font-family:&quot;Anthropic Sans&quot;, -apple-system, &quot;system-ui&quot;, &quot;Segoe UI&quot;, sans-serif;font-size:16px;font-weight:400;text-anchor:start;dominant-baseline:auto"/>
  <ellipse cx="340" cy="75" rx="120" ry="72" style="fill:rgb(39, 74, 28);stroke:none;color:rgb(0, 0, 0);stroke-width:1px;stroke-linecap:butt;stroke-linejoin:miter;opacity:1;font-family:&quot;Anthropic Sans&quot;, -apple-system, &quot;system-ui&quot;, &quot;Segoe UI&quot;, sans-serif;font-size:16px;font-weight:400;text-anchor:start;dominant-baseline:auto"/>
  <ellipse cx="240" cy="68" rx="80" ry="55" style="fill:rgb(39, 74, 28);stroke:none;color:rgb(0, 0, 0);stroke-width:1px;stroke-linecap:butt;stroke-linejoin:miter;opacity:1;font-family:&quot;Anthropic Sans&quot;, -apple-system, &quot;system-ui&quot;, &quot;Segoe UI&quot;, sans-serif;font-size:16px;font-weight:400;text-anchor:start;dominant-baseline:auto"/>
  <ellipse cx="440" cy="65" rx="85" ry="57" style="fill:rgb(39, 74, 28);stroke:none;color:rgb(0, 0, 0);stroke-width:1px;stroke-linecap:butt;stroke-linejoin:miter;opacity:1;font-family:&quot;Anthropic Sans&quot;, -apple-system, &quot;system-ui&quot;, &quot;Segoe UI&quot;, sans-serif;font-size:16px;font-weight:400;text-anchor:start;dominant-baseline:auto"/>

  <path d="M175 300 C168 380 162 480 160 580 C158 660 160 730 162 800 C164 820 168 835 175 838 C182 835 188 820 190 800 C192 730 192 660 190 580 C188 480 182 380 175 300 Z" style="fill:rgb(37, 26, 8);stroke:none;color:rgb(0, 0, 0);stroke-width:1px;stroke-linecap:butt;stroke-linejoin:miter;opacity:1;font-family:&quot;Anthropic Sans&quot;, -apple-system, &quot;system-ui&quot;, &quot;Segoe UI&quot;, sans-serif;font-size:16px;font-weight:400;text-anchor:start;dominant-baseline:auto"/>
  <path d="M175 300 C170 380 164 480 162 580 C160 660 162 730 164 800" fill="none" stroke-width="1.5" style="fill:none;stroke:rgb(122, 90, 40);color:rgb(0, 0, 0);stroke-width:1.5px;stroke-linecap:butt;stroke-linejoin:miter;opacity:1;font-family:&quot;Anthropic Sans&quot;, -apple-system, &quot;system-ui&quot;, &quot;Segoe UI&quot;, sans-serif;font-size:16px;font-weight:400;text-anchor:start;dominant-baseline:auto"/>
  <path d="M175 300 C180 380 186 480 188 580 C190 660 188 730 186 800" fill="none" stroke-width="1" style="fill:none;stroke:rgb(122, 90, 40);color:rgb(0, 0, 0);stroke-width:1px;stroke-linecap:butt;stroke-linejoin:miter;opacity:1;font-family:&quot;Anthropic Sans&quot;, -apple-system, &quot;system-ui&quot;, &quot;Segoe UI&quot;, sans-serif;font-size:16px;font-weight:400;text-anchor:start;dominant-baseline:auto"/>
  <ellipse cx="176" cy="832" rx="18" ry="8" style="fill:rgb(37, 26, 8);stroke:none;color:rgb(0, 0, 0);stroke-width:1px;stroke-linecap:butt;stroke-linejoin:miter;opacity:1;font-family:&quot;Anthropic Sans&quot;, -apple-system, &quot;system-ui&quot;, &quot;Segoe UI&quot;, sans-serif;font-size:16px;font-weight:400;text-anchor:start;dominant-baseline:auto"/>
  <ellipse cx="176" cy="832" rx="18" ry="8" fill="none" stroke-width="1.5" style="fill:none;stroke:rgb(122, 90, 40);color:rgb(0, 0, 0);stroke-width:1.5px;stroke-linecap:butt;stroke-linejoin:miter;opacity:1;font-family:&quot;Anthropic Sans&quot;, -apple-system, &quot;system-ui&quot;, &quot;Segoe UI&quot;, sans-serif;font-size:16px;font-weight:400;text-anchor:start;dominant-baseline:auto"/>

  <path d="M235 270 C228 355 222 460 220 560 C218 645 220 720 222 800 C224 820 228 835 235 838 C242 835 248 820 250 800 C252 720 252 645 250 560 C248 460 242 355 235 270 Z" style="fill:rgb(37, 26, 8);stroke:none;color:rgb(0, 0, 0);stroke-width:1px;stroke-linecap:butt;stroke-linejoin:miter;opacity:1;font-family:&quot;Anthropic Sans&quot;, -apple-system, &quot;system-ui&quot;, &quot;Segoe UI&quot;, sans-serif;font-size:16px;font-weight:400;text-anchor:start;dominant-baseline:auto"/>
  <path d="M235 270 C230 355 224 460 222 560 C220 645 222 720 224 800" fill="none" stroke-width="1.5" style="fill:none;stroke:rgb(122, 90, 40);color:rgb(0, 0, 0);stroke-width:1.5px;stroke-linecap:butt;stroke-linejoin:miter;opacity:1;font-family:&quot;Anthropic Sans&quot;, -apple-system, &quot;system-ui&quot;, &quot;Segoe UI&quot;, sans-serif;font-size:16px;font-weight:400;text-anchor:start;dominant-baseline:auto"/>
  <path d="M235 270 C240 355 246 460 248 560 C250 645 248 720 246 800" fill="none" stroke-width="1" style="fill:none;stroke:rgb(122, 90, 40);color:rgb(0, 0, 0);stroke-width:1px;stroke-linecap:butt;stroke-linejoin:miter;opacity:1;font-family:&quot;Anthropic Sans&quot;, -apple-system, &quot;system-ui&quot;, &quot;Segoe UI&quot;, sans-serif;font-size:16px;font-weight:400;text-anchor:start;dominant-baseline:auto"/>
  <ellipse cx="236" cy="832" rx="17" ry="7" style="fill:rgb(37, 26, 8);stroke:none;color:rgb(0, 0, 0);stroke-width:1px;stroke-linecap:butt;stroke-linejoin:miter;opacity:1;font-family:&quot;Anthropic Sans&quot;, -apple-system, &quot;system-ui&quot;, &quot;Segoe UI&quot;, sans-serif;font-size:16px;font-weight:400;text-anchor:start;dominant-baseline:auto"/>
  <ellipse cx="236" cy="832" rx="17" ry="7" fill="none" stroke-width="1.5" style="fill:none;stroke:rgb(122, 90, 40);color:rgb(0, 0, 0);stroke-width:1.5px;stroke-linecap:butt;stroke-linejoin:miter;opacity:1;font-family:&quot;Anthropic Sans&quot;, -apple-system, &quot;system-ui&quot;, &quot;Segoe UI&quot;, sans-serif;font-size:16px;font-weight:400;text-anchor:start;dominant-baseline:auto"/>

  <path d="M445 270 C452 355 458 460 460 560 C462 645 460 720 458 800 C456 820 452 835 445 838 C438 835 432 820 430 800 C428 720 428 645 430 560 C432 460 438 355 445 270 Z" style="fill:rgb(37, 26, 8);stroke:none;color:rgb(0, 0, 0);stroke-width:1px;stroke-linecap:butt;stroke-linejoin:miter;opacity:1;font-family:&quot;Anthropic Sans&quot;, -apple-system, &quot;system-ui&quot;, &quot;Segoe UI&quot;, sans-serif;font-size:16px;font-weight:400;text-anchor:start;dominant-baseline:auto"/>
  <path d="M445 270 C450 355 456 460 458 560 C460 645 458 720 456 800" fill="none" stroke-width="1.5" style="fill:none;stroke:rgb(122, 90, 40);color:rgb(0, 0, 0);stroke-width:1.5px;stroke-linecap:butt;stroke-linejoin:miter;opacity:1;font-family:&quot;Anthropic Sans&quot;, -apple-system, &quot;system-ui&quot;, &quot;Segoe UI&quot;, sans-serif;font-size:16px;font-weight:400;text-anchor:start;dominant-baseline:auto"/>
  <path d="M445 270 C440 355 434 460 432 560 C430 645 432 720 434 800" fill="none" stroke-width="1" style="fill:none;stroke:rgb(122, 90, 40);color:rgb(0, 0, 0);stroke-width:1px;stroke-linecap:butt;stroke-linejoin:miter;opacity:1;font-family:&quot;Anthropic Sans&quot;, -apple-system, &quot;system-ui&quot;, &quot;Segoe UI&quot;, sans-serif;font-size:16px;font-weight:400;text-anchor:start;dominant-baseline:auto"/>
  <ellipse cx="444" cy="832" rx="17" ry="7" style="fill:rgb(37, 26, 8);stroke:none;color:rgb(0, 0, 0);stroke-width:1px;stroke-linecap:butt;stroke-linejoin:miter;opacity:1;font-family:&quot;Anthropic Sans&quot;, -apple-system, &quot;system-ui&quot;, &quot;Segoe UI&quot;, sans-serif;font-size:16px;font-weight:400;text-anchor:start;dominant-baseline:auto"/>
  <ellipse cx="444" cy="832" rx="17" ry="7" fill="none" stroke-width="1.5" style="fill:none;stroke:rgb(122, 90, 40);color:rgb(0, 0, 0);stroke-width:1.5px;stroke-linecap:butt;stroke-linejoin:miter;opacity:1;font-family:&quot;Anthropic Sans&quot;, -apple-system, &quot;system-ui&quot;, &quot;Segoe UI&quot;, sans-serif;font-size:16px;font-weight:400;text-anchor:start;dominant-baseline:auto"/>

  <path d="M505 300 C512 380 518 480 520 580 C522 660 520 730 518 800 C516 820 512 835 505 838 C498 835 492 820 490 800 C488 730 488 660 490 580 C492 480 498 380 505 300 Z" style="fill:rgb(37, 26, 8);stroke:none;color:rgb(0, 0, 0);stroke-width:1px;stroke-linecap:butt;stroke-linejoin:miter;opacity:1;font-family:&quot;Anthropic Sans&quot;, -apple-system, &quot;system-ui&quot;, &quot;Segoe UI&quot;, sans-serif;font-size:16px;font-weight:400;text-anchor:start;dominant-baseline:auto"/>
  <path d="M505 300 C510 380 516 480 518 580 C520 660 518 730 516 800" fill="none" stroke-width="1.5" style="fill:none;stroke:rgb(122, 90, 40);color:rgb(0, 0, 0);stroke-width:1.5px;stroke-linecap:butt;stroke-linejoin:miter;opacity:1;font-family:&quot;Anthropic Sans&quot;, -apple-system, &quot;system-ui&quot;, &quot;Segoe UI&quot;, sans-serif;font-size:16px;font-weight:400;text-anchor:start;dominant-baseline:auto"/>
  <path d="M505 300 C500 380 494 480 492 580 C490 660 492 730 494 800" fill="none" stroke-width="1" style="fill:none;stroke:rgb(122, 90, 40);color:rgb(0, 0, 0);stroke-width:1px;stroke-linecap:butt;stroke-linejoin:miter;opacity:1;font-family:&quot;Anthropic Sans&quot;, -apple-system, &quot;system-ui&quot;, &quot;Segoe UI&quot;, sans-serif;font-size:16px;font-weight:400;text-anchor:start;dominant-baseline:auto"/>
  <ellipse cx="504" cy="832" rx="18" ry="8" style="fill:rgb(37, 26, 8);stroke:none;color:rgb(0, 0, 0);stroke-width:1px;stroke-linecap:butt;stroke-linejoin:miter;opacity:1;font-family:&quot;Anthropic Sans&quot;, -apple-system, &quot;system-ui&quot;, &quot;Segoe UI&quot;, sans-serif;font-size:16px;font-weight:400;text-anchor:start;dominant-baseline:auto"/>
  <ellipse cx="504" cy="832" rx="18" ry="8" fill="none" stroke-width="1.5" style="fill:none;stroke:rgb(122, 90, 40);color:rgb(0, 0, 0);stroke-width:1.5px;stroke-linecap:butt;stroke-linejoin:miter;opacity:1;font-family:&quot;Anthropic Sans&quot;, -apple-system, &quot;system-ui&quot;, &quot;Segoe UI&quot;, sans-serif;font-size:16px;font-weight:400;text-anchor:start;dominant-baseline:auto"/>

  <path d="M120 320 C115 410 112 520 112 630 C112 710 114 770 116 810" fill="none" stroke-width="1.2" opacity="0.7" style="fill:none;stroke:rgb(122, 90, 40);color:rgb(0, 0, 0);stroke-width:1.2px;stroke-linecap:butt;stroke-linejoin:miter;opacity:0.7;font-family:&quot;Anthropic Sans&quot;, -apple-system, &quot;system-ui&quot;, &quot;Segoe UI&quot;, sans-serif;font-size:16px;font-weight:400;text-anchor:start;dominant-baseline:auto"/>
  <ellipse cx="116" cy="822" rx="12" ry="6" opacity="0.7" style="fill:rgb(37, 26, 8);stroke:none;color:rgb(0, 0, 0);stroke-width:1px;stroke-linecap:butt;stroke-linejoin:miter;opacity:0.7;font-family:&quot;Anthropic Sans&quot;, -apple-system, &quot;system-ui&quot;, &quot;Segoe UI&quot;, sans-serif;font-size:16px;font-weight:400;text-anchor:start;dominant-baseline:auto"/>
  <ellipse cx="116" cy="822" rx="12" ry="6" fill="none" stroke-width="1" opacity="0.7" style="fill:none;stroke:rgb(122, 90, 40);color:rgb(0, 0, 0);stroke-width:1px;stroke-linecap:butt;stroke-linejoin:miter;opacity:0.7;font-family:&quot;Anthropic Sans&quot;, -apple-system, &quot;system-ui&quot;, &quot;Segoe UI&quot;, sans-serif;font-size:16px;font-weight:400;text-anchor:start;dominant-baseline:auto"/>

  <path d="M560 318 C565 408 568 518 568 628 C568 708 566 768 564 808" fill="none" stroke-width="1.2" opacity="0.7" style="fill:none;stroke:rgb(122, 90, 40);color:rgb(0, 0, 0);stroke-width:1.2px;stroke-linecap:butt;stroke-linejoin:miter;opacity:0.7;font-family:&quot;Anthropic Sans&quot;, -apple-system, &quot;system-ui&quot;, &quot;Segoe UI&quot;, sans-serif;font-size:16px;font-weight:400;text-anchor:start;dominant-baseline:auto"/>
  <ellipse cx="564" cy="820" rx="12" ry="6" opacity="0.7" style="fill:rgb(37, 26, 8);stroke:none;color:rgb(0, 0, 0);stroke-width:1px;stroke-linecap:butt;stroke-linejoin:miter;opacity:0.7;font-family:&quot;Anthropic Sans&quot;, -apple-system, &quot;system-ui&quot;, &quot;Segoe UI&quot;, sans-serif;font-size:16px;font-weight:400;text-anchor:start;dominant-baseline:auto"/>
  <ellipse cx="564" cy="820" rx="12" ry="6" fill="none" stroke-width="1" opacity="0.7" style="fill:none;stroke:rgb(122, 90, 40);color:rgb(0, 0, 0);stroke-width:1px;stroke-linecap:butt;stroke-linejoin:miter;opacity:0.7;font-family:&quot;Anthropic Sans&quot;, -apple-system, &quot;system-ui&quot;, &quot;Segoe UI&quot;, sans-serif;font-size:16px;font-weight:400;text-anchor:start;dominant-baseline:auto"/>

  <path d="M58 380 C58 480 58 590 58 700 C58 750 58 790 58 820" fill="none" stroke-width="2" stroke-dasharray="8 5" style="fill:none;stroke:rgb(58, 48, 48);color:rgb(0, 0, 0);stroke-width:2px;stroke-dasharray:8px, 5px;stroke-linecap:butt;stroke-linejoin:miter;opacity:1;font-family:&quot;Anthropic Sans&quot;, -apple-system, &quot;system-ui&quot;, &quot;Segoe UI&quot;, sans-serif;font-size:16px;font-weight:400;text-anchor:start;dominant-baseline:auto"/>
  <ellipse cx="58" cy="828" rx="14" ry="6" style="fill:rgb(26, 21, 21);stroke:none;color:rgb(0, 0, 0);stroke-width:1px;stroke-linecap:butt;stroke-linejoin:miter;opacity:1;font-family:&quot;Anthropic Sans&quot;, -apple-system, &quot;system-ui&quot;, &quot;Segoe UI&quot;, sans-serif;font-size:16px;font-weight:400;text-anchor:start;dominant-baseline:auto"/>
  <ellipse cx="58" cy="828" rx="14" ry="6" fill="none" stroke-width="1.5" stroke-dasharray="5 4" style="fill:none;stroke:rgb(58, 48, 48);color:rgb(0, 0, 0);stroke-width:1.5px;stroke-dasharray:5px, 4px;stroke-linecap:butt;stroke-linejoin:miter;opacity:1;font-family:&quot;Anthropic Sans&quot;, -apple-system, &quot;system-ui&quot;, &quot;Segoe UI&quot;, sans-serif;font-size:16px;font-weight:400;text-anchor:start;dominant-baseline:auto"/>

  <path d="M622 375 C622 475 622 585 622 695 C622 745 622 785 622 818" fill="none" stroke-width="2" stroke-dasharray="8 5" style="fill:none;stroke:rgb(58, 48, 48);color:rgb(0, 0, 0);stroke-width:2px;stroke-dasharray:8px, 5px;stroke-linecap:butt;stroke-linejoin:miter;opacity:1;font-family:&quot;Anthropic Sans&quot;, -apple-system, &quot;system-ui&quot;, &quot;Segoe UI&quot;, sans-serif;font-size:16px;font-weight:400;text-anchor:start;dominant-baseline:auto"/>
  <ellipse cx="622" cy="826" rx="14" ry="6" style="fill:rgb(26, 21, 21);stroke:none;color:rgb(0, 0, 0);stroke-width:1px;stroke-linecap:butt;stroke-linejoin:miter;opacity:1;font-family:&quot;Anthropic Sans&quot;, -apple-system, &quot;system-ui&quot;, &quot;Segoe UI&quot;, sans-serif;font-size:16px;font-weight:400;text-anchor:start;dominant-baseline:auto"/>
  <ellipse cx="622" cy="826" rx="14" ry="6" fill="none" stroke-width="1.5" stroke-dasharray="5 4" style="fill:none;stroke:rgb(58, 48, 48);color:rgb(0, 0, 0);stroke-width:1.5px;stroke-dasharray:5px, 4px;stroke-linecap:butt;stroke-linejoin:miter;opacity:1;font-family:&quot;Anthropic Sans&quot;, -apple-system, &quot;system-ui&quot;, &quot;Segoe UI&quot;, sans-serif;font-size:16px;font-weight:400;text-anchor:start;dominant-baseline:auto"/>

  <circle cx="340" cy="148" r="4" style="fill:rgb(201, 169, 110);stroke:none;color:rgb(0, 0, 0);stroke-width:1px;stroke-linecap:butt;stroke-linejoin:miter;opacity:1;font-family:&quot;Anthropic Sans&quot;, -apple-system, &quot;system-ui&quot;, &quot;Segoe UI&quot;, sans-serif;font-size:16px;font-weight:400;text-anchor:start;dominant-baseline:auto"/>
  <circle cx="340" cy="148" r="10" opacity="0.15" style="fill:rgb(201, 169, 110);stroke:none;color:rgb(0, 0, 0);stroke-width:1px;stroke-linecap:butt;stroke-linejoin:miter;opacity:0.15;font-family:&quot;Anthropic Sans&quot;, -apple-system, &quot;system-ui&quot;, &quot;Segoe UI&quot;, sans-serif;font-size:16px;font-weight:400;text-anchor:start;dominant-baseline:auto"/>
  <circle cx="340" cy="148" r="18" opacity="0.06" style="fill:rgb(201, 169, 110);stroke:none;color:rgb(0, 0, 0);stroke-width:1px;stroke-linecap:butt;stroke-linejoin:miter;opacity:0.06;font-family:&quot;Anthropic Sans&quot;, -apple-system, &quot;system-ui&quot;, &quot;Segoe UI&quot;, sans-serif;font-size:16px;font-weight:400;text-anchor:start;dominant-baseline:auto"/>

  <line x1="38" y1="860" x2="78" y2="860" stroke="#3a3030" stroke-width="0.5" stroke-dasharray="4 3" style="fill:rgb(0, 0, 0);stroke:rgb(58, 48, 48);color:rgb(0, 0, 0);stroke-width:0.5px;stroke-dasharray:4px, 3px;stroke-linecap:butt;stroke-linejoin:miter;opacity:1;font-family:&quot;Anthropic Sans&quot;, -apple-system, &quot;system-ui&quot;, &quot;Segoe UI&quot;, sans-serif;font-size:16px;font-weight:400;text-anchor:start;dominant-baseline:auto"/>
  <line x1="602" y1="860" x2="642" y2="860" stroke="#3a3030" stroke-width="0.5" stroke-dasharray="4 3" style="fill:rgb(0, 0, 0);stroke:rgb(58, 48, 48);color:rgb(0, 0, 0);stroke-width:0.5px;stroke-dasharray:4px, 3px;stroke-linecap:butt;stroke-linejoin:miter;opacity:1;font-family:&quot;Anthropic Sans&quot;, -apple-system, &quot;system-ui&quot;, &quot;Segoe UI&quot;, sans-serif;font-size:16px;font-weight:400;text-anchor:start;dominant-baseline:auto"/>

</svg>