<?xml version="1.0" encoding="UTF-8"?>
<svg xmlns="http://www.w3.org/2000/svg" viewBox="0 0 480 360" role="img" aria-label="Honeycomb hexagonal cell packing">
  <rect width="480" height="360" fill="#f8faf9"/>
  <g fill="#f4e4a8" stroke="#172A36" stroke-width="1">
    <polygon points="120,90 155,110 155,150 120,170 85,150 85,110"/>
    <polygon points="190,90 225,110 225,150 190,170 155,150 155,110"/>
    <polygon points="260,90 295,110 295,150 260,170 225,150 225,110"/>
    <polygon points="330,90 365,110 365,150 330,170 295,150 295,110"/>
    <polygon points="155,170 190,190 190,230 155,250 120,230 120,190"/>
    <polygon points="225,170 260,190 260,230 225,250 190,230 190,190"/>
    <polygon points="295,170 330,190 330,230 295,250 260,230 260,190"/>
    <polygon points="190,250 225,270 225,310 190,330 155,310 155,270"/>
    <polygon points="260,250 295,270 295,310 260,330 225,310 225,270"/>
  </g>
  <text x="24" y="32" font-family="Poppins,Arial,sans-serif" font-size="13" fill="#47545B">Honeycomb - hexagonal packing</text>
</svg>
